<svg xmlns="http://www.w3.org/2000/svg" xmlns:xlink="http://www.w3.org/1999/xlink" width="434" height="307" viewBox="0 0 434 307"><defs><style>.a{fill:#fff;}.b{fill:#9ac7d7;}.c,.d{fill:#4988a6;}.c{font-size:9px;}.c,.d,.g{font-family:Roboto-Regular, Roboto;}.d{font-size:8px;}.e{fill:#7586ed;}.f{fill:#48dfc0;}.g{fill:#959595;font-size:12px;}.h{filter:url(#a);}</style><filter id="a" x="0" y="0" width="434" height="307" filterUnits="userSpaceOnUse"><feOffset input="SourceAlpha"/><feGaussianBlur stdDeviation="3" result="b"/><feFlood flood-color="#6d6d6d" flood-opacity="0.161"/><feComposite operator="in" in2="b"/><feComposite in="SourceGraphic"/></filter></defs><g transform="translate(9 9.083)"><g class="h" transform="matrix(1, 0, 0, 1, -9, -9.08)"><rect class="a" width="416" height="289" rx="10" transform="translate(9 9)"/></g><path class="b" d="M387.668,510.824H45.954V315.2h1.491V509.021H387.668Z" transform="translate(3.57 -300.347)"/><rect class="b" width="341.138" height="1.125" transform="translate(49.524 29.714)"/><rect class="b" width="341.138" height="1.125" transform="translate(49.524 59.429)"/><rect class="b" width="341.138" height="1.125" transform="translate(49.524 90.381)"/><rect class="b" width="341.138" height="1.125" transform="translate(49.524 120.095)"/><rect class="b" width="341.138" height="1.125" transform="translate(49.524 180.762)"/><rect class="b" width="341.138" height="1.125" transform="translate(49.524 151.048)"/><text class="c" transform="translate(37 65.917)"><tspan x="-20.215" y="0">1000</tspan></text><text class="c" transform="translate(37 37.917)"><tspan x="-20.215" y="0">1300</tspan></text><text class="d" transform="translate(36 95.917)"><tspan x="-13.477" y="0">700</tspan></text><text class="d" transform="translate(36 126.917)"><tspan x="-13.477" y="0">500</tspan></text><text class="d" transform="translate(36 157.917)"><tspan x="-13.477" y="0">300</tspan></text><text class="d" transform="translate(36 188.917)"><tspan x="-13.477" y="0">100</tspan></text><text class="d" transform="translate(38 220.917)"><tspan x="-4.492" y="0">0</tspan></text><text class="d" transform="translate(70 236.917)"><tspan x="-13.477" y="0">100</tspan></text><text class="d" transform="translate(101 226.917)"><tspan x="-13.477" y="0">200</tspan></text><text class="d" transform="translate(132 226.917)"><tspan x="-13.477" y="0">300</tspan></text><text class="d" transform="translate(163 226.917)"><tspan x="-13.477" y="0">400</tspan></text><text class="d" transform="translate(194 226.917)"><tspan x="-13.477" y="0">500</tspan></text><text class="d" transform="translate(226 226.917)"><tspan x="-13.477" y="0">600</tspan></text><text class="d" transform="translate(257 226.917)"><tspan x="-13.477" y="0">600</tspan></text><text class="d" transform="translate(288 226.917)"><tspan x="-13.477" y="0">700</tspan></text><text class="d" transform="translate(319 226.917)"><tspan x="-13.477" y="0">800</tspan></text><text class="d" transform="translate(350 226.917)"><tspan x="-13.477" y="0">900</tspan></text><text class="c" transform="translate(386 227.917)"><tspan x="-20.215" y="0">1000</tspan></text><rect class="e" width="21" height="3" transform="translate(41 260.917) rotate(180)"/><rect class="f" width="20" height="3" transform="translate(199 260.917) rotate(180)"/><text class="g" transform="translate(55 249.917)"><tspan x="0" y="11">Lorem ipsum</tspan></text><text class="g" transform="translate(215 249.917)"><tspan x="0" y="11">Lorem ipsum</tspan></text><g transform="translate(64.381 68.158)"><rect class="e" width="14.449" height="141.781" transform="translate(0 0)"/><rect class="e" width="14.449" height="74.047" transform="translate(28.04 67.734)"/><rect class="e" width="14.449" height="101.141" transform="translate(56.081 40.641)"/><rect class="e" width="14.449" height="128.234" transform="translate(84.121 13.547)"/><rect class="e" width="14.449" height="101.141" transform="translate(112.161 40.641)"/><rect class="e" width="14.449" height="60.5" transform="translate(140.201 81.281)"/><rect class="e" width="14.449" height="128.234" transform="translate(168.242 13.547)"/><rect class="e" width="14.449" height="33.406" transform="translate(196.282 108.375)"/><rect class="e" width="14.449" height="128.234" transform="translate(224.322 13.547)"/><rect class="e" width="14.449" height="33.406" transform="translate(252.362 108.375)"/><rect class="e" width="14.449" height="114.688" transform="translate(280.403 27.094)"/></g></g></svg>