<svg xmlns="http://www.w3.org/2000/svg" xmlns:xlink="http://www.w3.org/1999/xlink" width="366.151" height="288" viewBox="0 0 366.151 288"><defs><style>.a{fill:none;}.b{fill:#27debf;}.c{fill:#fbfbfb;}.d{fill:#e0e0e0;}.e{fill:#10956d;}.f,.o,.p,.q{fill:#f5f5f5;}.g{fill:#37474f;}.h{fill:#455a64;}.i{fill:#263238;}.j{fill:#718de9;}.k{opacity:0.3;}.l{clip-path:url(#a);}.m{fill:#ebebeb;}.n{clip-path:url(#b);}.o,.r{opacity:0.5;}.p{opacity:0.6;}.q{opacity:0.7;}</style><clipPath id="a"><path class="a" d="M221.023,140.308c-.972.559-2.534,1.466-3.555,1.928-6.252,2.818-14.649,3.069-20.52.616a16.659,16.659,0,0,1-3.482-2.041c-4.089-3.36-3.66-8.114,1.085-11.677.9-.673,2.478-1.563,3.442-2.122l102.29-59.057c.85-.493.988-1.23.389-1.757a3.847,3.847,0,0,1,1.36,2.77l21.275,12.281Z" transform="translate(-190.672 -66.198)"/></clipPath><clipPath id="b"><path class="b" d="M151.757,305.53v14.942c0,1.118.785,1.571,1.753,1.012l19.52-11.27a3.877,3.877,0,0,0,1.753-3.037V292.237c0-1.118-.785-1.571-1.753-1.012L153.51,302.493A3.875,3.875,0,0,0,151.757,305.53Z" transform="translate(-151.757 -290.985)"/></clipPath></defs><g transform="translate(-22.316 -65.467)"><g transform="translate(22.316 162.186)"><path class="c" d="M75.938,350.664c71.5,37.35,187.413,37.351,258.907,0s71.5-97.906,0-135.256-187.413-37.351-258.908,0S4.442,313.314,75.938,350.664Z" transform="translate(-22.316 -187.395)"/></g><g transform="translate(68.457 188.999)"><path class="d" d="M358.816,309.369c-9.586-5.535-25.13-5.535-34.717,0s-9.587,14.508,0,20.044,25.131,5.535,34.718,0S368.4,314.9,358.816,309.369Z" transform="translate(-129.366 -238.569)"/><path class="d" d="M358.816,309.369c-9.586-5.535-25.13-5.535-34.717,0s-9.587,14.508,0,20.044,25.131,5.535,34.718,0S368.4,314.9,358.816,309.369Z" transform="translate(-129.366 -238.569)"/><path class="d" d="M122.391,225.348c-9.587-5.534-25.131-5.534-34.717,0s-9.587,14.509,0,20.044,25.13,5.534,34.717,0S131.978,230.883,122.391,225.348Z" transform="translate(-80.483 -221.197)"/><path class="d" d="M405.692,252.622c-9.586-5.535-25.13-5.535-34.717,0s-9.587,14.509,0,20.044,25.131,5.535,34.718,0S415.279,258.157,405.692,252.622Z" transform="translate(-139.058 -226.836)"/></g><g transform="translate(61.814 158.593)"><g transform="translate(0 83.171)"><g transform="translate(12.417)"><path class="e" d="M126.14,329.787a71.335,71.335,0,0,0-4.816-20.493c-4.277-10.557-11.7-19.118-21.169-21.123s-13.083,2.948-12.287,8.55,8.761,9.866,14.1,14.569,15.323,16.073,18.1,27.058l5.343.584Z" transform="translate(-87.762 -287.716)"/><g transform="translate(7.117 2.659)"><path class="f" d="M125.29,339.657h-.026a.4.4,0,0,1-.37-.421c1.207-18.83-11.06-39.654-27.928-47.409a.4.4,0,1,1,.332-.72c17.145,7.882,29.615,29.045,28.388,48.18A.4.4,0,0,1,125.29,339.657Z" transform="translate(-96.735 -291.069)"/></g></g><g transform="translate(0 30.799)"><path class="e" d="M122.545,380.156s-5.523,3.491-14.151,2.006-10.465-7.35-11.2-13.16-4.976-3.159-10.753-5.552-6.736-8.327-5.449-12.789a13.168,13.168,0,0,1,2.9-5.214s-4.082-1.79-7.776-7.982a58.589,58.589,0,0,1-4-8.7s4.7-3.585,13.971-1.641A23.515,23.515,0,0,1,94.685,331s5.089-5.719,11.972-3.614a7.859,7.859,0,0,1,5.036,4.862,23,23,0,0,0,1.129,2.816,4.755,4.755,0,0,0,3.516,1.98c3.279.47,6.317-.079,9.367,1.6a9.523,9.523,0,0,1,3.409,3.811C133.6,350.36,122.545,380.156,122.545,380.156Z" transform="translate(-72.109 -326.543)"/><g transform="translate(4.602 2.713)"><path class="f" d="M127.533,369.626a.4.4,0,0,1-.338-.189c-13.469-21.874-34.815-34.519-49-38.7a.4.4,0,1,1,.224-.761c14.32,4.22,35.864,16.978,49.452,39.045a.4.4,0,0,1-.13.545A.388.388,0,0,1,127.533,369.626Z" transform="translate(-77.91 -329.962)"/></g><g transform="translate(18.197 18.512)"><path class="f" d="M95.446,356.559a.4.4,0,0,1-.263-.694c.27-.239,6.716-5.838,15.477-5.985a.383.383,0,0,1,.4.39.4.4,0,0,1-.389.4c-8.472.142-14.9,5.73-14.966,5.787A.394.394,0,0,1,95.446,356.559Z" transform="translate(-95.049 -349.88)"/></g><g transform="translate(28.267 4.649)"><path class="f" d="M108.24,343.236a.4.4,0,0,1-.393-.352,20.309,20.309,0,0,1,1.761-10.261.4.4,0,0,1,.712.352,19.859,19.859,0,0,0-1.684,9.82.4.4,0,0,1-.351.439Z" transform="translate(-107.744 -332.404)"/></g></g></g><g transform="translate(266.368)"><path class="g" d="M409.988,225.9s-3.244-10.583-1.636-20.593,6.375-17.9,12.584-21.2,13.979.347,8.868,7.406-15.532,16.528-14.54,34.174Z" transform="translate(-407.905 -182.866)"/><g transform="translate(3.251 2.351)"><path class="f" d="M413.386,226.722a.319.319,0,0,1-.307-.236c-3.465-12.806,1.574-33.334,13.262-40.608a.318.318,0,1,1,.336.539c-11.463,7.134-16.392,27.308-12.985,39.9a.318.318,0,0,1-.224.39A.305.305,0,0,1,413.386,226.722Z" transform="translate(-412.004 -185.83)"/></g><g transform="translate(6.247 17.968)"><path class="h" d="M420.219,242.152a6.961,6.961,0,0,0,3.17.844,9.32,9.32,0,0,0,3.829-.579c2.171-.819,3.988-2.065,4.536-4.413.433-1.851-.254-3.938.555-5.71.764-1.674,3.233-2.826,4.89-3.352,1.164-.37,2.385-.547,3.528-.979a4.518,4.518,0,0,0,2.7-2.314c1.1-2.693-1.891-5.745-.911-8.481.486-1.358,1.813-2.2,3.033-2.966s2.511-1.7,2.847-3.106a4,4,0,0,0-1.21-3.568c-2.176-2.252-5.838-2.469-8.762-1.352a27.161,27.161,0,0,1-2.768,1.073c-3.685.964-7.6-1.454-11.312-.58a6.7,6.7,0,0,0-4.891,4.953c-.179.806-.205,1.641-.393,2.446-.47,2.021-2.6,2.45-3.113,4.521-.461,1.872.125,3.846.447,5.692.5,2.837,1.052,5.665,1.64,8.485q.48,2.3.984,4.591c.311,1.406-.1,2.95.529,4.241A7.054,7.054,0,0,0,420.219,242.152Z" transform="translate(-415.78 -205.518)"/><g transform="translate(3.084 2.493)"><path class="f" d="M419.987,232.792a.345.345,0,0,1-.049,0,.319.319,0,0,1-.266-.363c1.591-10.322,16.09-22.527,25.35-23.762a.318.318,0,1,1,.084.63c-9.062,1.21-23.251,13.14-24.805,23.229A.319.319,0,0,1,419.987,232.792Z" transform="translate(-419.668 -208.661)"/></g><g transform="translate(8.392 3.229)"><path class="f" d="M429.655,219.185a.318.318,0,0,1-.316-.289c-.578-6.3-2.868-8.745-2.891-8.769a.318.318,0,0,1,.457-.443c.1.1,2.465,2.6,3.067,9.152a.318.318,0,0,1-.287.346Z" transform="translate(-426.36 -209.589)"/></g><g transform="translate(8.11 15.543)"><path class="f" d="M439.663,227.65a.316.316,0,0,1-.125-.025c-.071-.03-7.176-3-13.133-1.386a.318.318,0,0,1-.167-.614c6.171-1.676,13.25,1.288,13.549,1.414a.318.318,0,0,1-.125.611Z" transform="translate(-426.004 -225.112)"/></g></g></g></g><g transform="translate(150.86 65.467)"><path class="i" d="M364.236,119.813l6.58,3.794V135l-6.58-3.8Z" transform="translate(-221.554 -76.703)"/><path class="j" d="M322,81.1,300.732,93.38V68.817a3.293,3.293,0,0,0-5.043-2.911L190.465,126.657c-4.067,2.347-6.1,5.425-6.1,8.5V237.71c0,3.077,2.033,6.155,6.1,8.5l.15.087c8.134,4.7,21.321,4.7,29.454,0l105.224-60.752a3.887,3.887,0,0,0,1.753-3.037V81.985l-1.644-.95A3.76,3.76,0,0,0,322,81.1Z" transform="translate(-184.365 -65.467)"/><g transform="translate(0.025)"><path class="b" d="M190.472,143.662c-8.1-4.676-8.1-12.329,0-17L295.7,65.906a3.76,3.76,0,0,1,3.4-.063c.908.525.859,1.4-.109,1.962L196.7,126.858c-.969.559-2.549,1.452-3.443,2.124-4.747,3.565-5.178,8.319-1.088,11.68a16.748,16.748,0,0,0,3.482,2.039c5.868,2.451,14.272,2.2,20.519-.614,1.019-.46,2.586-1.374,3.555-1.933L322.011,81.1a3.758,3.758,0,0,1,3.4-.063c.908.524.86,1.4-.109,1.962L220.075,143.749c-8.1,4.676-21.354,4.676-29.454,0Z" transform="translate(-184.397 -65.467)"/><path class="k" d="M190.472,143.662c-8.1-4.676-8.1-12.329,0-17L295.7,65.906a3.76,3.76,0,0,1,3.4-.063c.908.525.859,1.4-.109,1.962L196.7,126.858c-.969.559-2.549,1.452-3.443,2.124-4.747,3.565-5.178,8.319-1.088,11.68a16.748,16.748,0,0,0,3.482,2.039c5.868,2.451,14.272,2.2,20.519-.614,1.019-.46,2.586-1.374,3.555-1.933L322.011,81.1a3.758,3.758,0,0,1,3.4-.063c.908.524.86,1.4-.109,1.962L220.075,143.749c-8.1,4.676-21.354,4.676-29.454,0Z" transform="translate(-184.397 -65.467)"/></g><g transform="translate(1.674 27.501)"><g transform="translate(0 54.611)"><path class="f" d="M188.265,171.185a.4.4,0,0,1-.26-.1,12.977,12.977,0,0,1-1.437-1.454.4.4,0,0,1,.609-.508,12.108,12.108,0,0,0,1.348,1.364.4.4,0,0,1-.26.7Z" transform="translate(-186.476 -168.981)"/></g><g transform="translate(4.696 2.995)"><path class="f" d="M208.282,163.175a.4.4,0,0,1-.013-.792,34.836,34.836,0,0,0,3.935-.362.4.4,0,0,1,.117.785,35.469,35.469,0,0,1-4.025.37Zm-4-.08h-.031a34.735,34.735,0,0,1-4.007-.536.4.4,0,1,1,.152-.779,34.166,34.166,0,0,0,3.915.524.4.4,0,0,1-.029.792Zm11.886-1.122a.4.4,0,0,1-.108-.777,25.835,25.835,0,0,0,3.7-1.349.4.4,0,0,1,.33.722,26.5,26.5,0,0,1-3.811,1.389A.357.357,0,0,1,216.172,161.973Zm-19.711-.427a.394.394,0,0,1-.127-.021,24.159,24.159,0,0,1-3.729-1.609.4.4,0,1,1,.376-.7,23.55,23.55,0,0,0,3.607,1.556.4.4,0,0,1-.127.772Zm26.973-2.855a.4.4,0,0,1-.2-.74l3.463-2a.4.4,0,1,1,.4.687l-3.463,2A.4.4,0,0,1,223.434,158.692Zm6.927-4a.4.4,0,0,1-.2-.74l3.463-2a.4.4,0,0,1,.4.687l-3.463,2A.4.4,0,0,1,230.361,154.693Zm6.927-4a.4.4,0,0,1-.2-.74l3.463-2a.4.4,0,0,1,.4.687l-3.463,2A.392.392,0,0,1,237.287,150.694Zm6.927-4a.4.4,0,0,1-.2-.74l3.462-2a.4.4,0,1,1,.4.687l-3.462,2A.4.4,0,0,1,244.214,146.695Zm6.927-4a.4.4,0,0,1-.2-.74l3.463-2a.4.4,0,0,1,.4.687l-3.463,2A.4.4,0,0,1,251.141,142.7Zm6.926-4a.4.4,0,0,1-.2-.74l3.463-2a.4.4,0,0,1,.4.687l-3.463,2A.392.392,0,0,1,258.066,138.7Zm6.927-4a.4.4,0,0,1-.2-.74l3.463-2a.4.4,0,0,1,.4.687l-3.463,2A.392.392,0,0,1,264.993,134.7Zm6.927-4a.4.4,0,0,1-.2-.74l3.463-2a.4.4,0,1,1,.4.687l-3.463,2A.4.4,0,0,1,271.92,130.7Zm6.926-4a.4.4,0,0,1-.2-.74l3.464-2a.4.4,0,0,1,.4.687l-3.464,2A.392.392,0,0,1,278.845,126.7Zm6.927-4a.4.4,0,0,1-.2-.74l3.463-2a.4.4,0,1,1,.4.687l-3.463,2A.392.392,0,0,1,285.773,122.7Zm6.926-4a.4.4,0,0,1-.2-.74l3.463-2a.4.4,0,0,1,.4.687l-3.463,2A.4.4,0,0,1,292.7,118.7Zm6.927-4a.4.4,0,0,1-.2-.74l3.463-2a.4.4,0,1,1,.4.687l-3.463,2A.4.4,0,0,1,299.625,114.7Zm6.927-4a.4.4,0,0,1-.2-.74l3.462-2a.4.4,0,0,1,.4.688l-3.462,2A.392.392,0,0,1,306.552,110.7Zm6.927-4a.4.4,0,0,1-.2-.741l3.463-2a.4.4,0,0,1,.4.687l-3.463,2A.4.4,0,0,1,313.478,106.705Z" transform="translate(-192.397 -103.912)"/></g><g transform="translate(132.315)"><path class="f" d="M355.393,102.912a.4.4,0,0,1-.4-.4v-1.3l-1.122.648a.4.4,0,1,1-.4-.687l1.717-.992a.4.4,0,0,1,.595.343v1.983A.4.4,0,0,1,355.393,102.912Z" transform="translate(-353.279 -100.136)"/></g><g transform="translate(134.033 5.955)"><path class="f" d="M355.841,183.9a.4.4,0,0,1-.4-.4v-3.972a.4.4,0,0,1,.793,0V183.5A.4.4,0,0,1,355.841,183.9Zm0-7.944a.4.4,0,0,1-.4-.4v-3.972a.4.4,0,0,1,.793,0v3.972A.4.4,0,0,1,355.841,175.956Zm0-7.944a.4.4,0,0,1-.4-.4v-3.972a.4.4,0,0,1,.793,0v3.972A.4.4,0,0,1,355.841,168.013Zm0-7.944a.4.4,0,0,1-.4-.4V155.7a.4.4,0,0,1,.793,0v3.972A.4.4,0,0,1,355.841,160.069Zm0-7.944a.4.4,0,0,1-.4-.4v-3.972a.4.4,0,0,1,.793,0v3.972A.4.4,0,0,1,355.841,152.126Zm0-7.944a.4.4,0,0,1-.4-.4v-3.972a.4.4,0,0,1,.793,0v3.972A.4.4,0,0,1,355.841,144.182Zm0-7.944a.4.4,0,0,1-.4-.4V131.87a.4.4,0,0,1,.793,0v3.972A.4.4,0,0,1,355.841,136.239Zm0-7.944a.4.4,0,0,1-.4-.4v-3.972a.4.4,0,0,1,.793,0V127.9A.4.4,0,0,1,355.841,128.3Zm0-7.944a.4.4,0,0,1-.4-.4v-3.972a.4.4,0,0,1,.793,0v3.972A.4.4,0,0,1,355.841,120.352Zm0-7.944a.4.4,0,0,1-.4-.4V108.04a.4.4,0,0,1,.793,0v3.972A.4.4,0,0,1,355.841,112.408Z" transform="translate(-355.444 -107.643)"/></g><g transform="translate(132.315 85.39)"><path class="f" d="M353.676,211.551a.4.4,0,0,1-.2-.74l1.519-.877V208.18a.4.4,0,0,1,.793,0v1.983a.4.4,0,0,1-.2.343l-1.717.992A.4.4,0,0,1,353.676,211.551Z" transform="translate(-353.279 -207.783)"/></g><g transform="translate(4.703 90.363)"><path class="f" d="M208.294,273.321a.4.4,0,0,1-.014-.793,34.794,34.794,0,0,0,3.935-.362.4.4,0,1,1,.118.784,35.445,35.445,0,0,1-4.025.371Zm-4-.078a.192.192,0,0,1-.03,0,34.694,34.694,0,0,1-4.008-.535.4.4,0,0,1,.152-.78,33.44,33.44,0,0,0,3.915.523.4.4,0,0,1-.029.793Zm11.884-1.125a.4.4,0,0,1-.108-.779,25.854,25.854,0,0,0,3.7-1.349.4.4,0,0,1,.33.72,26.575,26.575,0,0,1-3.809,1.392A.4.4,0,0,1,216.182,272.117Zm-19.711-.423a.414.414,0,0,1-.127-.021,24.315,24.315,0,0,1-3.731-1.608.4.4,0,1,1,.377-.7,23.557,23.557,0,0,0,3.608,1.555.4.4,0,0,1-.127.772Zm26.973-2.862a.4.4,0,0,1-.2-.74l3.462-2a.4.4,0,0,1,.4.686l-3.462,2A.393.393,0,0,1,223.444,268.833Zm6.926-4a.4.4,0,0,1-.2-.74l3.463-2a.4.4,0,1,1,.4.686l-3.463,2A.4.4,0,0,1,230.37,264.834Zm6.927-4a.4.4,0,0,1-.2-.74l3.463-2a.4.4,0,0,1,.4.686l-3.463,2A.4.4,0,0,1,237.3,260.835Zm6.927-4a.4.4,0,0,1-.2-.74l3.462-2a.4.4,0,1,1,.4.686l-3.462,2A.4.4,0,0,1,244.223,256.836Zm6.926-4a.4.4,0,0,1-.2-.74l3.464-2a.4.4,0,0,1,.4.686l-3.464,2A.393.393,0,0,1,251.149,252.837Zm6.927-4a.4.4,0,0,1-.2-.74l3.463-2a.4.4,0,1,1,.4.686l-3.463,2A.393.393,0,0,1,258.075,248.838Zm6.927-4a.4.4,0,0,1-.2-.74l3.463-2a.4.4,0,1,1,.4.686l-3.463,2A.393.393,0,0,1,265,244.839Zm6.927-4a.4.4,0,0,1-.2-.74l3.463-2a.4.4,0,0,1,.4.687l-3.463,2A.393.393,0,0,1,271.928,240.84Zm6.927-4a.4.4,0,0,1-.2-.74l3.462-2a.4.4,0,1,1,.4.687l-3.462,2A.392.392,0,0,1,278.855,236.84Zm6.927-4a.4.4,0,0,1-.2-.74l3.463-2a.4.4,0,0,1,.4.687l-3.463,2A.394.394,0,0,1,285.782,232.842Zm6.926-4a.4.4,0,0,1-.2-.74l3.463-2a.4.4,0,1,1,.4.687l-3.463,2A.4.4,0,0,1,292.707,228.843Zm6.927-4a.4.4,0,0,1-.2-.74l3.463-2a.4.4,0,0,1,.4.687l-3.463,2A.4.4,0,0,1,299.634,224.844Zm6.927-4a.4.4,0,0,1-.2-.74l3.463-2a.4.4,0,0,1,.4.687l-3.463,2A.392.392,0,0,1,306.561,220.845Zm6.926-4a.4.4,0,0,1-.2-.74l3.464-2a.4.4,0,0,1,.4.687l-3.464,2A.4.4,0,0,1,313.487,216.846Z" transform="translate(-192.405 -214.052)"/></g><g transform="translate(0 141.984)"><path class="f" d="M188.265,281.331a.4.4,0,0,1-.26-.1,13.042,13.042,0,0,1-1.437-1.454.4.4,0,0,1,.609-.51,11.984,11.984,0,0,0,1.348,1.364.4.4,0,0,1-.26.7Z" transform="translate(-186.476 -279.128)"/></g></g><g transform="translate(5.003 0.58)"><g class="l"><g transform="translate(-3.763 6.918)"><path class="d" d="M301.055,89.917V77.964a3.1,3.1,0,0,0-1.4-2.429l-.485-.28a3.1,3.1,0,0,0-2.8,0l-110.435,63.76,16.447,9.494,97.278-56.162A3.1,3.1,0,0,0,301.055,89.917Z" transform="translate(-185.928 -74.92)"/><path class="m" d="M296.363,75.255l-110.435,63.76,3.29,1.9L299.653,77.154a.855.855,0,0,0,0-1.619l-.485-.28A3.1,3.1,0,0,0,296.363,75.255Z" transform="translate(-185.928 -74.92)"/><g transform="translate(6.579 3.797)"><path class="d" d="M309.349,94.7V82.751a3.1,3.1,0,0,0-1.4-2.43l-.484-.279a3.1,3.1,0,0,0-2.806,0L194.222,143.8l16.447,9.5,97.278-56.163A3.1,3.1,0,0,0,309.349,94.7Z" transform="translate(-194.222 -79.707)"/><path class="m" d="M304.657,80.043,194.222,143.8l3.29,1.9L307.946,81.942a.855.855,0,0,0,0-1.62l-.484-.279A3.1,3.1,0,0,0,304.657,80.043Z" transform="translate(-194.222 -79.707)"/></g><g transform="translate(13.158 7.593)"><path class="d" d="M317.642,99.49V87.536a3.1,3.1,0,0,0-1.4-2.43l-.485-.279a3.1,3.1,0,0,0-2.8,0L202.515,148.587l16.446,9.5,97.279-56.163A3.1,3.1,0,0,0,317.642,99.49Z" transform="translate(-202.515 -84.492)"/><path class="m" d="M312.95,84.828,202.515,148.587l3.29,1.9L316.239,86.727a.855.855,0,0,0,0-1.62l-.485-.279A3.1,3.1,0,0,0,312.95,84.828Z" transform="translate(-202.515 -84.492)"/></g></g></g></g><g transform="translate(96.63 43.11)"><path class="b" d="M365.391,129.028v23.345a3.116,3.116,0,0,1-1.4,2.43L321.4,179.4a.406.406,0,0,1-.081.04c-3.218,1.839-6.141,2.076-8.278.973-.649-.336-3.144-1.788-3.753-2.182-1.93-1.248-3.1-3.708-3.1-7.156,0-7.109,5-15.806,11.3-19.8l.008-.008,39.922-23.046a2.291,2.291,0,0,0,.21-.146c.559-.445.486-1.068-.21-1.474l-5.174-2.988v-3.8L363.99,126.6a3.133,3.133,0,0,1,1.377,2.154A1.6,1.6,0,0,1,365.391,129.028Z" transform="translate(-306.181 -119.813)"/><path class="k" d="M365.391,129.028v23.345a3.116,3.116,0,0,1-1.4,2.43L321.4,179.4a.406.406,0,0,1-.081.04c-3.218,1.839-6.141,2.076-8.278.973-.649-.336-3.144-1.788-3.753-2.182-1.93-1.248-3.1-3.708-3.1-7.156,0-7.109,5-15.806,11.3-19.8l.008-.008,39.922-23.046a2.291,2.291,0,0,0,.21-.146c.559-.445.486-1.068-.21-1.474l-5.174-2.988v-3.8L363.99,126.6a3.133,3.133,0,0,1,1.377,2.154A1.6,1.6,0,0,1,365.391,129.028Z" transform="translate(-306.181 -119.813)"/></g><path class="j" d="M366.248,131.168v23.345a3.116,3.116,0,0,1-1.4,2.43l-42.593,24.593a.41.41,0,0,1-.081.04c-4.195,2.4-7.888,2.073-9.993-.4a9.2,9.2,0,0,1-1.855-6.056c0-7.345,5.345-16.374,11.929-20.18l40.707-23.5,1.886-1.085c.689-.405,1.264-.162,1.377.535A1.6,1.6,0,0,1,366.248,131.168Z" transform="translate(-210.408 -78.843)"/><g transform="translate(109.789 81.363)"><path class="g" d="M322.77,177.257c0,3.146,2.209,4.422,4.934,2.849a10.905,10.905,0,0,0,4.934-8.546c0-3.146-2.209-4.422-4.934-2.849A10.906,10.906,0,0,0,322.77,177.257Z" transform="translate(-322.77 -168.037)"/><path class="g" d="M333.184,169.409l-1.463-.835-7.134,11.986,1.676.965Z" transform="translate(-323.146 -168.148)"/><path class="h" d="M324.843,178.454c0,3.146,2.209,4.422,4.935,2.849a10.907,10.907,0,0,0,4.934-8.546c0-3.146-2.21-4.422-4.935-2.849A10.906,10.906,0,0,0,324.843,178.454Z" transform="translate(-323.199 -168.284)"/></g></g><g transform="translate(111.837 158.699)"><path class="h" d="M136.815,354.294a3.758,3.758,0,0,1-1.644-2.974v-94.7a3.875,3.875,0,0,1,1.753-3.036l121.488-70.142a3.3,3.3,0,0,1,5.043,2.912v94.7a3.876,3.876,0,0,1-1.753,3.037L140.213,354.231A3.758,3.758,0,0,1,136.815,354.294Z" transform="translate(-135.17 -183)"/><path class="i" d="M141.749,277.127l-6.066-3.5a3.594,3.594,0,0,0-.513,1.728v94.7a3.293,3.293,0,0,0,5.042,2.911l1.536-.887Z" transform="translate(-135.17 -201.737)"/><path class="g" d="M139.317,259.062v94.7c0,1.118.785,1.571,1.753,1.012l121.488-70.141a3.876,3.876,0,0,0,1.753-3.037V186.9c0-1.119-.785-1.571-1.753-1.012L141.07,256.025A3.873,3.873,0,0,0,139.317,259.062Z" transform="translate(-136.027 -183.547)"/><g transform="translate(13.158 85.659)"><path class="b" d="M151.757,305.53v14.942c0,1.118.785,1.571,1.753,1.012l19.52-11.27a3.877,3.877,0,0,0,1.753-3.037V292.237c0-1.118-.785-1.571-1.753-1.012L153.51,302.493A3.875,3.875,0,0,0,151.757,305.53Z" transform="translate(-151.757 -290.985)"/><g class="n"><g transform="translate(-3.485 2.676)"><rect class="f" width="34.184" height="0.793" transform="translate(0 17.103) rotate(-30.021)"/></g><g transform="translate(6.182 14.42)"><rect class="f" width="0.793" height="7.612"/></g><g transform="translate(16.05 8.754)"><rect class="f" width="0.793" height="7.6"/></g><g transform="translate(-3.485 10.304)"><rect class="f" width="34.184" height="0.793" transform="translate(0 17.103) rotate(-30.021)"/></g></g></g><g transform="translate(13.158 66.664)"><path class="d" d="M151.757,341.444v3.548c0,1.118.785,1.571,1.753,1.012l19.519-11.27a3.875,3.875,0,0,0,1.753-3.037v-3.547c0-1.119-.785-1.571-1.753-1.012L153.51,338.407A3.877,3.877,0,0,0,151.757,341.444Z" transform="translate(-151.757 -279.416)"/><path class="d" d="M186.313,321.491v3.548c0,1.118.785,1.571,1.753,1.012l19.519-11.27a3.876,3.876,0,0,0,1.754-3.037V308.2c0-1.118-.785-1.571-1.753-1.012l-19.519,11.269A3.875,3.875,0,0,0,186.313,321.491Z" transform="translate(-158.902 -275.291)"/><path class="d" d="M220.868,301.539v3.547c0,1.118.785,1.571,1.753,1.012l19.519-11.27a3.876,3.876,0,0,0,1.753-3.037v-3.547c0-1.118-.785-1.571-1.753-1.012L222.621,298.5A3.875,3.875,0,0,0,220.868,301.539Z" transform="translate(-166.046 -271.165)"/><path class="d" d="M255.424,281.586v3.547c0,1.118.785,1.571,1.753,1.012l19.519-11.27a3.873,3.873,0,0,0,1.753-3.037v-3.547c0-1.118-.785-1.571-1.753-1.012l-19.519,11.27A3.874,3.874,0,0,0,255.424,281.586Z" transform="translate(-173.191 -267.04)"/></g><path class="b" d="M269.245,290.739l-4.475,2.584a2.324,2.324,0,0,0-1.052,1.822v1.369c0,.67.47.942,1.052.607l4.475-2.584a2.326,2.326,0,0,0,1.052-1.822v-1.368C270.3,290.675,269.825,290.4,269.245,290.739Z" transform="translate(-161.748 -205.246)"/><path class="b" d="M281.684,283.557l-4.476,2.584a2.324,2.324,0,0,0-1.052,1.821v1.369c0,.671.471.943,1.052.608l4.476-2.584a2.326,2.326,0,0,0,1.052-1.822v-1.369C282.736,283.493,282.265,283.221,281.684,283.557Z" transform="translate(-164.32 -203.761)"/><path class="b" d="M211.451,328.233l55.7-32.16c.968-.558,1.753-.106,1.753,1.012v1.649a3.877,3.877,0,0,1-1.753,3.037l-55.7,32.159c-.968.559-1.753.106-1.752-1.012V331.27A3.873,3.873,0,0,1,211.451,328.233Z" transform="translate(-150.579 -206.329)"/></g><g transform="translate(70.93 183.443)"><g transform="translate(187.473 61.08)"><g transform="translate(0 6.219)"><g transform="translate(0 4.148)"><path class="b" d="M363.04,312.9a14.29,14.29,0,0,0-5.291-4.893c-8.65-4.993-22.674-4.993-31.324,0a14.29,14.29,0,0,0-5.291,4.893h-1.2v4.525h.016c.159,3.147,2.312,6.266,6.472,8.667,8.65,4.994,22.674,4.994,31.324,0,4.16-2.4,6.313-5.52,6.472-8.667h.016V312.9Z" transform="translate(-319.938 -304.262)"/><path class="o" d="M363.04,312.9a14.29,14.29,0,0,0-5.291-4.893c-8.65-4.993-22.674-4.993-31.324,0a14.29,14.29,0,0,0-5.291,4.893h-1.2v4.525h.016c.159,3.147,2.312,6.266,6.472,8.667,8.65,4.994,22.674,4.994,31.324,0,4.16-2.4,6.313-5.52,6.472-8.667h.016V312.9Z" transform="translate(-319.938 -304.262)"/></g><g transform="translate(0)"><path class="b" d="M357.75,302.779c-8.65-4.994-22.674-4.994-31.324,0s-8.65,13.091,0,18.084,22.674,4.994,31.324,0S366.4,307.772,357.75,302.779Z" transform="translate(-319.938 -299.033)"/><path class="p" d="M357.75,302.779c-8.65-4.994-22.674-4.994-31.324,0s-8.65,13.091,0,18.084,22.674,4.994,31.324,0S366.4,307.772,357.75,302.779Z" transform="translate(-319.938 -299.033)"/><g transform="translate(0.966 0.962)"><g transform="translate(6.489 3.916)"><path class="b" d="M354.23,307.359a24.992,24.992,0,0,0-20.4,0c-2.9,1.487-4.5,3.525-4.5,5.735s1.6,4.245,4.5,5.731a24.95,24.95,0,0,0,20.4,0c2.9-1.487,4.493-3.521,4.493-5.731S357.126,308.845,354.23,307.359Z" transform="translate(-329.336 -305.183)"/><path class="p" d="M354.23,307.359a24.992,24.992,0,0,0-20.4,0c-2.9,1.487-4.5,3.525-4.5,5.735s1.6,4.245,4.5,5.731a24.95,24.95,0,0,0,20.4,0c2.9-1.487,4.493-3.521,4.493-5.731S357.126,308.845,354.23,307.359Z" transform="translate(-329.336 -305.183)"/></g><path class="b" d="M357.52,303.866a33.638,33.638,0,0,0-30.358,0c-3.875,2.236-6.006,5.147-6.006,8.208s2.131,5.972,6.006,8.208a33.677,33.677,0,0,0,30.358,0c3.87-2.236,6.006-5.152,6.006-8.208S361.39,306.1,357.52,303.866ZM352.539,317.8a24.95,24.95,0,0,1-20.4,0c-2.9-1.487-4.5-3.521-4.5-5.731s1.6-4.249,4.5-5.735a24.992,24.992,0,0,1,20.4,0c2.9,1.487,4.493,3.525,4.493,5.735S355.435,316.318,352.539,317.8Z" transform="translate(-321.156 -300.246)"/><path class="q" d="M357.52,303.866a33.638,33.638,0,0,0-30.358,0c-3.875,2.236-6.006,5.147-6.006,8.208s2.131,5.972,6.006,8.208a33.677,33.677,0,0,0,30.358,0c3.87-2.236,6.006-5.152,6.006-8.208S361.39,306.1,357.52,303.866ZM352.539,317.8a24.95,24.95,0,0,1-20.4,0c-2.9-1.487-4.5-3.521-4.5-5.731s1.6-4.249,4.5-5.735a24.992,24.992,0,0,1,20.4,0c2.9,1.487,4.493,3.525,4.493,5.735S355.435,316.318,352.539,317.8Z" transform="translate(-321.156 -300.246)"/></g></g><g transform="translate(8.219 5.638)"><path class="b" d="M354.08,318.345c5.441-2.792,5.44-7.318,0-10.111s-14.261-2.792-19.7,0-5.441,7.318,0,10.111S348.64,321.136,354.08,318.345Z" transform="translate(-330.299 -306.14)"/><path class="o" d="M354.08,318.345c5.441-2.792,5.44-7.318,0-10.111s-14.261-2.792-19.7,0-5.441,7.318,0,10.111S348.64,321.136,354.08,318.345Z" transform="translate(-330.299 -306.14)"/><g transform="translate(0.125 1.894)"><path class="b" d="M354.113,310.622c-5.441-2.792-14.261-2.792-19.7,0-2.25,1.154-3.566,2.606-3.956,4.108.389,1.5,1.706,2.953,3.956,4.108,5.44,2.791,14.261,2.791,19.7,0,2.25-1.155,3.566-2.606,3.955-4.108C357.679,313.228,356.363,311.776,354.113,310.622Z" transform="translate(-330.456 -308.528)"/><path class="p" d="M354.113,310.622c-5.441-2.792-14.261-2.792-19.7,0-2.25,1.154-3.566,2.606-3.956,4.108.389,1.5,1.706,2.953,3.956,4.108,5.44,2.791,14.261,2.791,19.7,0,2.25-1.155,3.566-2.606,3.955-4.108C357.679,313.228,356.363,311.776,354.113,310.622Z" transform="translate(-330.456 -308.528)"/></g></g><g transform="translate(13.566 7.221)"><g transform="translate(0 0.62)"><path class="b" d="M349.006,308.918v2.043l-.7.736-1.29,1.351v-2.126Z" transform="translate(-339.103 -308.918)"/><path class="b" d="M345.966,311.3v2.127h-4.03v-2.49S345.663,310.367,345.966,311.3Z" transform="translate(-338.052 -309.3)"/><path class="b" d="M354.2,316.9v1.763l-2.234,1.289-1.653-.955a8.419,8.419,0,0,1-6.4.289v-1.765l1.015-1.007-1.015.28a6.53,6.53,0,0,1-4.984-.57c-1-.577-1.467-1.21-1.465-1.86v-1.717l.181-.751-.609-.355v-1.765l1.653.956a2.554,2.554,0,0,0-1.225,1.9v.02c.018.635.488,1.249,1.465,1.814,2.173,1.255,4.326.841,6.3.208,1.834-.6,3.17-1.3,4.227-.692.657.38.458.841-.279,1.267a3.664,3.664,0,0,1-3.15.183l-2.112,2.094a7.422,7.422,0,0,0,1.167.342,8.7,8.7,0,0,0,5.231-.629l1.653.956Z" transform="translate(-337.04 -309.094)"/><path class="b" d="M353.775,319.175v1.763l1.654.955V320.13Z" transform="translate(-340.5 -311.038)"/><g class="r"><path class="f" d="M349.006,308.918v2.043l-.7.736-1.29,1.351v-2.126Z" transform="translate(-339.103 -308.918)"/><path class="f" d="M345.966,311.3v2.127h-4.03v-2.49S345.663,310.367,345.966,311.3Z" transform="translate(-338.052 -309.3)"/><path class="f" d="M354.2,316.9v1.763l-2.234,1.289-1.653-.955a8.419,8.419,0,0,1-6.4.289v-1.765l1.015-1.007-1.015.28a6.53,6.53,0,0,1-4.984-.57c-1-.577-1.467-1.21-1.465-1.86v-1.717l.181-.751-.609-.355v-1.765l1.653.956a2.554,2.554,0,0,0-1.225,1.9v.02c.018.635.488,1.249,1.465,1.814,2.173,1.255,4.326.841,6.3.208,1.834-.6,3.17-1.3,4.227-.692.657.38.458.841-.279,1.267a3.664,3.664,0,0,1-3.15.183l-2.112,2.094a7.422,7.422,0,0,0,1.167.342,8.7,8.7,0,0,0,5.231-.629l1.653.956Z" transform="translate(-337.04 -309.094)"/><path class="f" d="M353.775,319.175v1.763l1.654.955V320.13Z" transform="translate(-340.5 -311.038)"/></g></g><path class="b" d="M353.829,316.345l-1.279-.742a2.177,2.177,0,0,0,1.279-1.959,1.687,1.687,0,0,0-.011-.171,2.413,2.413,0,0,0-1.429-1.733v-.006a5.865,5.865,0,0,0-2.972-.775c-.082,0-.171.006-.255.006h-.028l-.266.017c-.077.006-.155.011-.232.022-.033.006-.066.006-.094.011a1.709,1.709,0,0,0-.178.022,11.88,11.88,0,0,0-1.444.3c-.227.061-.454.128-.675.2-.321.1-.637.2-.935.3-.122.044-.239.083-.355.122a10.942,10.942,0,0,1-1.982.565,2.053,2.053,0,0,1-.853-.033,1.779,1.779,0,0,1-.4-.167c-.5-.287-.576-.725.359-1.268a3.269,3.269,0,0,1,2.873-.3l1.987-2a8.511,8.511,0,0,0-5.995.332l-1.655-.952-2.253,1.3,1.655.952a2.56,2.56,0,0,0-1.229,1.9v.017c.022.636.487,1.251,1.467,1.815,2.175,1.256,4.329.842,6.3.205,1.832-.6,3.166-1.3,4.223-.693.658.382.459.842-.277,1.268a3.638,3.638,0,0,1-3.149.183l-2.115,2.1a8.155,8.155,0,0,0,1.168.344,8.721,8.721,0,0,0,5.231-.631l1.655.958,2.231-1.29Z" transform="translate(-337.04 -308.136)"/><path class="q" d="M353.829,316.345l-1.279-.742a2.177,2.177,0,0,0,1.279-1.959,1.687,1.687,0,0,0-.011-.171,2.413,2.413,0,0,0-1.429-1.733v-.006a5.865,5.865,0,0,0-2.972-.775c-.082,0-.171.006-.255.006h-.028l-.266.017c-.077.006-.155.011-.232.022-.033.006-.066.006-.094.011a1.709,1.709,0,0,0-.178.022,11.88,11.88,0,0,0-1.444.3c-.227.061-.454.128-.675.2-.321.1-.637.2-.935.3-.122.044-.239.083-.355.122a10.942,10.942,0,0,1-1.982.565,2.053,2.053,0,0,1-.853-.033,1.779,1.779,0,0,1-.4-.167c-.5-.287-.576-.725.359-1.268a3.269,3.269,0,0,1,2.873-.3l1.987-2a8.511,8.511,0,0,0-5.995.332l-1.655-.952-2.253,1.3,1.655.952a2.56,2.56,0,0,0-1.229,1.9v.017c.022.636.487,1.251,1.467,1.815,2.175,1.256,4.329.842,6.3.205,1.832-.6,3.166-1.3,4.223-.693.658.382.459.842-.277,1.268a3.638,3.638,0,0,1-3.149.183l-2.115,2.1a8.155,8.155,0,0,0,1.168.344,8.721,8.721,0,0,0,5.231-.631l1.655.958,2.231-1.29Z" transform="translate(-337.04 -308.136)"/></g></g><g transform="translate(1.319)"><g transform="translate(0 4.147)"><path class="b" d="M364.7,305.059a14.29,14.29,0,0,0-5.291-4.893c-8.65-4.994-22.674-4.994-31.324,0a14.282,14.282,0,0,0-5.291,4.893h-1.2v4.525h.016c.159,3.146,2.312,6.265,6.472,8.667,8.649,4.993,22.674,4.993,31.324,0,4.16-2.4,6.313-5.521,6.472-8.667h.016v-4.525Z" transform="translate(-321.601 -296.421)"/><path class="o" d="M364.7,305.059a14.29,14.29,0,0,0-5.291-4.893c-8.65-4.994-22.674-4.994-31.324,0a14.282,14.282,0,0,0-5.291,4.893h-1.2v4.525h.016c.159,3.146,2.312,6.265,6.472,8.667,8.649,4.993,22.674,4.993,31.324,0,4.16-2.4,6.313-5.521,6.472-8.667h.016v-4.525Z" transform="translate(-321.601 -296.421)"/></g><g transform="translate(0)"><path class="b" d="M359.413,294.938c-8.65-4.993-22.674-4.993-31.324,0s-8.65,13.091,0,18.085,22.674,4.994,31.324,0S368.063,299.932,359.413,294.938Z" transform="translate(-321.601 -291.193)"/><path class="p" d="M359.413,294.938c-8.65-4.993-22.674-4.993-31.324,0s-8.65,13.091,0,18.085,22.674,4.994,31.324,0S368.063,299.932,359.413,294.938Z" transform="translate(-321.601 -291.193)"/><g transform="translate(0.966 0.962)"><g transform="translate(6.489 3.917)"><path class="b" d="M355.893,299.519a24.99,24.99,0,0,0-20.4,0c-2.9,1.486-4.5,3.524-4.5,5.735s1.6,4.245,4.5,5.73a24.948,24.948,0,0,0,20.4,0c2.9-1.486,4.493-3.52,4.493-5.73S358.789,301,355.893,299.519Z" transform="translate(-330.999 -297.343)"/><path class="p" d="M355.893,299.519a24.99,24.99,0,0,0-20.4,0c-2.9,1.486-4.5,3.524-4.5,5.735s1.6,4.245,4.5,5.73a24.948,24.948,0,0,0,20.4,0c2.9-1.486,4.493-3.52,4.493-5.73S358.789,301,355.893,299.519Z" transform="translate(-330.999 -297.343)"/></g><path class="b" d="M359.184,296.025a33.639,33.639,0,0,0-30.359,0c-3.875,2.237-6.006,5.147-6.006,8.208s2.131,5.971,6.006,8.208a33.685,33.685,0,0,0,30.359,0c3.869-2.236,6-5.152,6-8.208S363.053,298.261,359.184,296.025ZM354.2,309.963a24.948,24.948,0,0,1-20.4,0c-2.9-1.486-4.5-3.52-4.5-5.73s1.6-4.249,4.5-5.735a24.99,24.99,0,0,1,20.4,0c2.9,1.486,4.493,3.524,4.493,5.735S357.1,308.478,354.2,309.963Z" transform="translate(-322.819 -292.405)"/><path class="q" d="M359.184,296.025a33.639,33.639,0,0,0-30.359,0c-3.875,2.237-6.006,5.147-6.006,8.208s2.131,5.971,6.006,8.208a33.685,33.685,0,0,0,30.359,0c3.869-2.236,6-5.152,6-8.208S363.053,298.261,359.184,296.025ZM354.2,309.963a24.948,24.948,0,0,1-20.4,0c-2.9-1.486-4.5-3.52-4.5-5.73s1.6-4.249,4.5-5.735a24.99,24.99,0,0,1,20.4,0c2.9,1.486,4.493,3.524,4.493,5.735S357.1,308.478,354.2,309.963Z" transform="translate(-322.819 -292.405)"/></g></g><g transform="translate(8.219 5.638)"><ellipse class="b" cx="13.931" cy="7.149" rx="13.931" ry="7.149"/><ellipse class="o" cx="13.931" cy="7.149" rx="13.931" ry="7.149"/><g transform="translate(0.125 1.894)"><path class="b" d="M355.776,302.781c-5.44-2.791-14.261-2.791-19.7,0-2.25,1.155-3.566,2.606-3.955,4.108.389,1.5,1.706,2.954,3.955,4.108,5.44,2.792,14.261,2.792,19.7,0,2.25-1.154,3.566-2.6,3.956-4.107C359.343,305.387,358.026,303.936,355.776,302.781Z" transform="translate(-332.12 -300.688)"/><path class="p" d="M355.776,302.781c-5.44-2.791-14.261-2.791-19.7,0-2.25,1.155-3.566,2.606-3.955,4.108.389,1.5,1.706,2.954,3.955,4.108,5.44,2.792,14.261,2.792,19.7,0,2.25-1.154,3.566-2.6,3.956-4.107C359.343,305.387,358.026,303.936,355.776,302.781Z" transform="translate(-332.12 -300.688)"/></g></g><g transform="translate(13.566 7.221)"><g transform="translate(0 0.62)"><path class="b" d="M350.669,301.077v2.043l-.7.736-1.29,1.351v-2.126Z" transform="translate(-340.766 -301.077)"/><path class="b" d="M347.629,303.463v2.127H343.6V303.1S347.326,302.527,347.629,303.463Z" transform="translate(-339.715 -301.459)"/><path class="b" d="M355.866,309.057v1.763l-2.234,1.289-1.653-.956a8.416,8.416,0,0,1-6.4.289v-1.765l1.015-1.007-1.015.28a6.534,6.534,0,0,1-4.984-.57c-1-.577-1.467-1.21-1.464-1.861V304.8l.181-.75-.61-.355v-1.765l1.653.956a2.549,2.549,0,0,0-1.224,1.894v.02c.017.635.487,1.25,1.464,1.814,2.173,1.255,4.326.841,6.3.209,1.835-.6,3.17-1.3,4.228-.693.656.38.457.841-.28,1.268a3.669,3.669,0,0,1-3.15.183l-2.112,2.093a7.555,7.555,0,0,0,1.167.343,8.7,8.7,0,0,0,5.231-.629l1.653.955Z" transform="translate(-338.703 -301.254)"/><path class="b" d="M355.438,311.335V313.1l1.654.955V312.29Z" transform="translate(-342.163 -303.198)"/><g class="r"><path class="f" d="M350.669,301.077v2.043l-.7.736-1.29,1.351v-2.126Z" transform="translate(-340.766 -301.077)"/><path class="f" d="M347.629,303.463v2.127H343.6V303.1S347.326,302.527,347.629,303.463Z" transform="translate(-339.715 -301.459)"/><path class="f" d="M355.866,309.057v1.763l-2.234,1.289-1.653-.956a8.416,8.416,0,0,1-6.4.289v-1.765l1.015-1.007-1.015.28a6.534,6.534,0,0,1-4.984-.57c-1-.577-1.467-1.21-1.464-1.861V304.8l.181-.75-.61-.355v-1.765l1.653.956a2.549,2.549,0,0,0-1.224,1.894v.02c.017.635.487,1.25,1.464,1.814,2.173,1.255,4.326.841,6.3.209,1.835-.6,3.17-1.3,4.228-.693.656.38.457.841-.28,1.268a3.669,3.669,0,0,1-3.15.183l-2.112,2.093a7.555,7.555,0,0,0,1.167.343,8.7,8.7,0,0,0,5.231-.629l1.653.955Z" transform="translate(-338.703 -301.254)"/><path class="f" d="M355.438,311.335V313.1l1.654.955V312.29Z" transform="translate(-342.163 -303.198)"/></g></g><path class="b" d="M355.492,308.5l-1.279-.742a2.178,2.178,0,0,0,1.279-1.959,1.663,1.663,0,0,0-.011-.172,2.414,2.414,0,0,0-1.428-1.732v-.006a5.873,5.873,0,0,0-2.973-.775c-.083,0-.171.006-.255.006H350.8l-.265.016c-.078.006-.155.011-.233.022-.033.006-.066.006-.094.011a1.68,1.68,0,0,0-.177.022,11.869,11.869,0,0,0-1.445.3c-.227.061-.454.127-.675.2-.321.1-.637.2-.935.3-.122.044-.238.083-.355.122a10.938,10.938,0,0,1-1.982.564,2.054,2.054,0,0,1-.853-.033,1.74,1.74,0,0,1-.4-.166c-.5-.288-.576-.725.359-1.268a3.269,3.269,0,0,1,2.873-.3l1.987-2a8.51,8.51,0,0,0-5.995.332l-1.655-.952-2.254,1.3,1.655.953a2.558,2.558,0,0,0-1.229,1.9v.017c.022.637.487,1.251,1.467,1.816,2.175,1.257,4.329.842,6.3.2,1.832-.6,3.166-1.3,4.223-.692.659.382.459.842-.277,1.268a3.637,3.637,0,0,1-3.149.182l-2.115,2.1a8.129,8.129,0,0,0,1.168.343,8.719,8.719,0,0,0,5.231-.631l1.655.958,2.231-1.29Z" transform="translate(-338.703 -300.296)"/><path class="q" d="M355.492,308.5l-1.279-.742a2.178,2.178,0,0,0,1.279-1.959,1.663,1.663,0,0,0-.011-.172,2.414,2.414,0,0,0-1.428-1.732v-.006a5.873,5.873,0,0,0-2.973-.775c-.083,0-.171.006-.255.006H350.8l-.265.016c-.078.006-.155.011-.233.022-.033.006-.066.006-.094.011a1.68,1.68,0,0,0-.177.022,11.869,11.869,0,0,0-1.445.3c-.227.061-.454.127-.675.2-.321.1-.637.2-.935.3-.122.044-.238.083-.355.122a10.938,10.938,0,0,1-1.982.564,2.054,2.054,0,0,1-.853-.033,1.74,1.74,0,0,1-.4-.166c-.5-.288-.576-.725.359-1.268a3.269,3.269,0,0,1,2.873-.3l1.987-2a8.51,8.51,0,0,0-5.995.332l-1.655-.952-2.254,1.3,1.655.953a2.558,2.558,0,0,0-1.229,1.9v.017c.022.637.487,1.251,1.467,1.816,2.175,1.257,4.329.842,6.3.2,1.832-.6,3.166-1.3,4.223-.692.659.382.459.842-.277,1.268a3.637,3.637,0,0,1-3.149.182l-2.115,2.1a8.129,8.129,0,0,0,1.168.343,8.719,8.719,0,0,0,5.231-.631l1.655.958,2.231-1.29Z" transform="translate(-338.703 -300.296)"/></g></g></g><g transform="translate(187.473 61.08)"><g transform="translate(0 6.219)"><g transform="translate(0 4.148)"><path class="b" d="M363.04,312.9a14.29,14.29,0,0,0-5.291-4.893c-8.65-4.993-22.674-4.993-31.324,0a14.29,14.29,0,0,0-5.291,4.893h-1.2v4.525h.016c.159,3.147,2.312,6.266,6.472,8.667,8.65,4.994,22.674,4.994,31.324,0,4.16-2.4,6.313-5.52,6.472-8.667h.016V312.9Z" transform="translate(-319.938 -304.262)"/><path class="o" d="M363.04,312.9a14.29,14.29,0,0,0-5.291-4.893c-8.65-4.993-22.674-4.993-31.324,0a14.29,14.29,0,0,0-5.291,4.893h-1.2v4.525h.016c.159,3.147,2.312,6.266,6.472,8.667,8.65,4.994,22.674,4.994,31.324,0,4.16-2.4,6.313-5.52,6.472-8.667h.016V312.9Z" transform="translate(-319.938 -304.262)"/></g><g transform="translate(0)"><path class="b" d="M357.75,302.779c-8.65-4.994-22.674-4.994-31.324,0s-8.65,13.091,0,18.084,22.674,4.994,31.324,0S366.4,307.772,357.75,302.779Z" transform="translate(-319.938 -299.033)"/><path class="p" d="M357.75,302.779c-8.65-4.994-22.674-4.994-31.324,0s-8.65,13.091,0,18.084,22.674,4.994,31.324,0S366.4,307.772,357.75,302.779Z" transform="translate(-319.938 -299.033)"/><g transform="translate(0.966 0.962)"><g transform="translate(6.489 3.916)"><path class="b" d="M354.23,307.359a24.992,24.992,0,0,0-20.4,0c-2.9,1.487-4.5,3.525-4.5,5.735s1.6,4.245,4.5,5.731a24.95,24.95,0,0,0,20.4,0c2.9-1.487,4.493-3.521,4.493-5.731S357.126,308.845,354.23,307.359Z" transform="translate(-329.336 -305.183)"/><path class="p" d="M354.23,307.359a24.992,24.992,0,0,0-20.4,0c-2.9,1.487-4.5,3.525-4.5,5.735s1.6,4.245,4.5,5.731a24.95,24.95,0,0,0,20.4,0c2.9-1.487,4.493-3.521,4.493-5.731S357.126,308.845,354.23,307.359Z" transform="translate(-329.336 -305.183)"/></g><path class="b" d="M357.52,303.866a33.638,33.638,0,0,0-30.358,0c-3.875,2.236-6.006,5.147-6.006,8.208s2.131,5.972,6.006,8.208a33.677,33.677,0,0,0,30.358,0c3.87-2.236,6.006-5.152,6.006-8.208S361.39,306.1,357.52,303.866ZM352.539,317.8a24.95,24.95,0,0,1-20.4,0c-2.9-1.487-4.5-3.521-4.5-5.731s1.6-4.249,4.5-5.735a24.992,24.992,0,0,1,20.4,0c2.9,1.487,4.493,3.525,4.493,5.735S355.435,316.318,352.539,317.8Z" transform="translate(-321.156 -300.246)"/><path class="q" d="M357.52,303.866a33.638,33.638,0,0,0-30.358,0c-3.875,2.236-6.006,5.147-6.006,8.208s2.131,5.972,6.006,8.208a33.677,33.677,0,0,0,30.358,0c3.87-2.236,6.006-5.152,6.006-8.208S361.39,306.1,357.52,303.866ZM352.539,317.8a24.95,24.95,0,0,1-20.4,0c-2.9-1.487-4.5-3.521-4.5-5.731s1.6-4.249,4.5-5.735a24.992,24.992,0,0,1,20.4,0c2.9,1.487,4.493,3.525,4.493,5.735S355.435,316.318,352.539,317.8Z" transform="translate(-321.156 -300.246)"/></g></g><g transform="translate(8.219 5.638)"><path class="b" d="M354.08,318.345c5.441-2.792,5.44-7.318,0-10.111s-14.261-2.792-19.7,0-5.441,7.318,0,10.111S348.64,321.136,354.08,318.345Z" transform="translate(-330.299 -306.14)"/><path class="o" d="M354.08,318.345c5.441-2.792,5.44-7.318,0-10.111s-14.261-2.792-19.7,0-5.441,7.318,0,10.111S348.64,321.136,354.08,318.345Z" transform="translate(-330.299 -306.14)"/><g transform="translate(0.125 1.894)"><path class="b" d="M354.113,310.622c-5.441-2.792-14.261-2.792-19.7,0-2.25,1.154-3.566,2.606-3.956,4.108.389,1.5,1.706,2.953,3.956,4.108,5.44,2.791,14.261,2.791,19.7,0,2.25-1.155,3.566-2.606,3.955-4.108C357.679,313.228,356.363,311.776,354.113,310.622Z" transform="translate(-330.456 -308.528)"/><path class="p" d="M354.113,310.622c-5.441-2.792-14.261-2.792-19.7,0-2.25,1.154-3.566,2.606-3.956,4.108.389,1.5,1.706,2.953,3.956,4.108,5.44,2.791,14.261,2.791,19.7,0,2.25-1.155,3.566-2.606,3.955-4.108C357.679,313.228,356.363,311.776,354.113,310.622Z" transform="translate(-330.456 -308.528)"/></g></g><g transform="translate(13.566 7.221)"><g transform="translate(0 0.62)"><path class="b" d="M349.006,308.918v2.043l-.7.736-1.29,1.351v-2.126Z" transform="translate(-339.103 -308.918)"/><path class="b" d="M345.966,311.3v2.127h-4.03v-2.49S345.663,310.367,345.966,311.3Z" transform="translate(-338.052 -309.3)"/><path class="b" d="M354.2,316.9v1.763l-2.234,1.289-1.653-.955a8.419,8.419,0,0,1-6.4.289v-1.765l1.015-1.007-1.015.28a6.53,6.53,0,0,1-4.984-.57c-1-.577-1.467-1.21-1.465-1.86v-1.717l.181-.751-.609-.355v-1.765l1.653.956a2.554,2.554,0,0,0-1.225,1.9v.02c.018.635.488,1.249,1.465,1.814,2.173,1.255,4.326.841,6.3.208,1.834-.6,3.17-1.3,4.227-.692.657.38.458.841-.279,1.267a3.664,3.664,0,0,1-3.15.183l-2.112,2.094a7.422,7.422,0,0,0,1.167.342,8.7,8.7,0,0,0,5.231-.629l1.653.956Z" transform="translate(-337.04 -309.094)"/><path class="b" d="M353.775,319.175v1.763l1.654.955V320.13Z" transform="translate(-340.5 -311.038)"/><g class="r"><path class="f" d="M349.006,308.918v2.043l-.7.736-1.29,1.351v-2.126Z" transform="translate(-339.103 -308.918)"/><path class="f" d="M345.966,311.3v2.127h-4.03v-2.49S345.663,310.367,345.966,311.3Z" transform="translate(-338.052 -309.3)"/><path class="f" d="M354.2,316.9v1.763l-2.234,1.289-1.653-.955a8.419,8.419,0,0,1-6.4.289v-1.765l1.015-1.007-1.015.28a6.53,6.53,0,0,1-4.984-.57c-1-.577-1.467-1.21-1.465-1.86v-1.717l.181-.751-.609-.355v-1.765l1.653.956a2.554,2.554,0,0,0-1.225,1.9v.02c.018.635.488,1.249,1.465,1.814,2.173,1.255,4.326.841,6.3.208,1.834-.6,3.17-1.3,4.227-.692.657.38.458.841-.279,1.267a3.664,3.664,0,0,1-3.15.183l-2.112,2.094a7.422,7.422,0,0,0,1.167.342,8.7,8.7,0,0,0,5.231-.629l1.653.956Z" transform="translate(-337.04 -309.094)"/><path class="f" d="M353.775,319.175v1.763l1.654.955V320.13Z" transform="translate(-340.5 -311.038)"/></g></g><path class="b" d="M353.829,316.345l-1.279-.742a2.177,2.177,0,0,0,1.279-1.959,1.687,1.687,0,0,0-.011-.171,2.413,2.413,0,0,0-1.429-1.733v-.006a5.865,5.865,0,0,0-2.972-.775c-.082,0-.171.006-.255.006h-.028l-.266.017c-.077.006-.155.011-.232.022-.033.006-.066.006-.094.011a1.709,1.709,0,0,0-.178.022,11.88,11.88,0,0,0-1.444.3c-.227.061-.454.128-.675.2-.321.1-.637.2-.935.3-.122.044-.239.083-.355.122a10.942,10.942,0,0,1-1.982.565,2.053,2.053,0,0,1-.853-.033,1.779,1.779,0,0,1-.4-.167c-.5-.287-.576-.725.359-1.268a3.269,3.269,0,0,1,2.873-.3l1.987-2a8.511,8.511,0,0,0-5.995.332l-1.655-.952-2.253,1.3,1.655.952a2.56,2.56,0,0,0-1.229,1.9v.017c.022.636.487,1.251,1.467,1.815,2.175,1.256,4.329.842,6.3.205,1.832-.6,3.166-1.3,4.223-.693.658.382.459.842-.277,1.268a3.638,3.638,0,0,1-3.149.183l-2.115,2.1a8.155,8.155,0,0,0,1.168.344,8.721,8.721,0,0,0,5.231-.631l1.655.958,2.231-1.29Z" transform="translate(-337.04 -308.136)"/><path class="q" d="M353.829,316.345l-1.279-.742a2.177,2.177,0,0,0,1.279-1.959,1.687,1.687,0,0,0-.011-.171,2.413,2.413,0,0,0-1.429-1.733v-.006a5.865,5.865,0,0,0-2.972-.775c-.082,0-.171.006-.255.006h-.028l-.266.017c-.077.006-.155.011-.232.022-.033.006-.066.006-.094.011a1.709,1.709,0,0,0-.178.022,11.88,11.88,0,0,0-1.444.3c-.227.061-.454.128-.675.2-.321.1-.637.2-.935.3-.122.044-.239.083-.355.122a10.942,10.942,0,0,1-1.982.565,2.053,2.053,0,0,1-.853-.033,1.779,1.779,0,0,1-.4-.167c-.5-.287-.576-.725.359-1.268a3.269,3.269,0,0,1,2.873-.3l1.987-2a8.511,8.511,0,0,0-5.995.332l-1.655-.952-2.253,1.3,1.655.952a2.56,2.56,0,0,0-1.229,1.9v.017c.022.636.487,1.251,1.467,1.815,2.175,1.256,4.329.842,6.3.205,1.832-.6,3.166-1.3,4.223-.693.658.382.459.842-.277,1.268a3.638,3.638,0,0,1-3.149.183l-2.115,2.1a8.155,8.155,0,0,0,1.168.344,8.721,8.721,0,0,0,5.231-.631l1.655.958,2.231-1.29Z" transform="translate(-337.04 -308.136)"/></g></g><g transform="translate(1.319)"><g transform="translate(0 4.147)"><path class="b" d="M364.7,305.059a14.29,14.29,0,0,0-5.291-4.893c-8.65-4.994-22.674-4.994-31.324,0a14.282,14.282,0,0,0-5.291,4.893h-1.2v4.525h.016c.159,3.146,2.312,6.265,6.472,8.667,8.649,4.993,22.674,4.993,31.324,0,4.16-2.4,6.313-5.521,6.472-8.667h.016v-4.525Z" transform="translate(-321.601 -296.421)"/><path class="o" d="M364.7,305.059a14.29,14.29,0,0,0-5.291-4.893c-8.65-4.994-22.674-4.994-31.324,0a14.282,14.282,0,0,0-5.291,4.893h-1.2v4.525h.016c.159,3.146,2.312,6.265,6.472,8.667,8.649,4.993,22.674,4.993,31.324,0,4.16-2.4,6.313-5.521,6.472-8.667h.016v-4.525Z" transform="translate(-321.601 -296.421)"/></g><g transform="translate(0)"><path class="b" d="M359.413,294.938c-8.65-4.993-22.674-4.993-31.324,0s-8.65,13.091,0,18.085,22.674,4.994,31.324,0S368.063,299.932,359.413,294.938Z" transform="translate(-321.601 -291.193)"/><path class="p" d="M359.413,294.938c-8.65-4.993-22.674-4.993-31.324,0s-8.65,13.091,0,18.085,22.674,4.994,31.324,0S368.063,299.932,359.413,294.938Z" transform="translate(-321.601 -291.193)"/><g transform="translate(0.966 0.962)"><g transform="translate(6.489 3.917)"><path class="b" d="M355.893,299.519a24.99,24.99,0,0,0-20.4,0c-2.9,1.486-4.5,3.524-4.5,5.735s1.6,4.245,4.5,5.73a24.948,24.948,0,0,0,20.4,0c2.9-1.486,4.493-3.52,4.493-5.73S358.789,301,355.893,299.519Z" transform="translate(-330.999 -297.343)"/><path class="p" d="M355.893,299.519a24.99,24.99,0,0,0-20.4,0c-2.9,1.486-4.5,3.524-4.5,5.735s1.6,4.245,4.5,5.73a24.948,24.948,0,0,0,20.4,0c2.9-1.486,4.493-3.52,4.493-5.73S358.789,301,355.893,299.519Z" transform="translate(-330.999 -297.343)"/></g><path class="b" d="M359.184,296.025a33.639,33.639,0,0,0-30.359,0c-3.875,2.237-6.006,5.147-6.006,8.208s2.131,5.971,6.006,8.208a33.685,33.685,0,0,0,30.359,0c3.869-2.236,6-5.152,6-8.208S363.053,298.261,359.184,296.025ZM354.2,309.963a24.948,24.948,0,0,1-20.4,0c-2.9-1.486-4.5-3.52-4.5-5.73s1.6-4.249,4.5-5.735a24.99,24.99,0,0,1,20.4,0c2.9,1.486,4.493,3.524,4.493,5.735S357.1,308.478,354.2,309.963Z" transform="translate(-322.819 -292.405)"/><path class="q" d="M359.184,296.025a33.639,33.639,0,0,0-30.359,0c-3.875,2.237-6.006,5.147-6.006,8.208s2.131,5.971,6.006,8.208a33.685,33.685,0,0,0,30.359,0c3.869-2.236,6-5.152,6-8.208S363.053,298.261,359.184,296.025ZM354.2,309.963a24.948,24.948,0,0,1-20.4,0c-2.9-1.486-4.5-3.52-4.5-5.73s1.6-4.249,4.5-5.735a24.99,24.99,0,0,1,20.4,0c2.9,1.486,4.493,3.524,4.493,5.735S357.1,308.478,354.2,309.963Z" transform="translate(-322.819 -292.405)"/></g></g><g transform="translate(8.219 5.638)"><ellipse class="b" cx="13.931" cy="7.149" rx="13.931" ry="7.149"/><ellipse class="o" cx="13.931" cy="7.149" rx="13.931" ry="7.149"/><g transform="translate(0.125 1.894)"><path class="b" d="M355.776,302.781c-5.44-2.791-14.261-2.791-19.7,0-2.25,1.155-3.566,2.606-3.955,4.108.389,1.5,1.706,2.954,3.955,4.108,5.44,2.792,14.261,2.792,19.7,0,2.25-1.154,3.566-2.6,3.956-4.107C359.343,305.387,358.026,303.936,355.776,302.781Z" transform="translate(-332.12 -300.688)"/><path class="p" d="M355.776,302.781c-5.44-2.791-14.261-2.791-19.7,0-2.25,1.155-3.566,2.606-3.955,4.108.389,1.5,1.706,2.954,3.955,4.108,5.44,2.792,14.261,2.792,19.7,0,2.25-1.154,3.566-2.6,3.956-4.107C359.343,305.387,358.026,303.936,355.776,302.781Z" transform="translate(-332.12 -300.688)"/></g></g><g transform="translate(13.566 7.221)"><g transform="translate(0 0.62)"><path class="b" d="M350.669,301.077v2.043l-.7.736-1.29,1.351v-2.126Z" transform="translate(-340.766 -301.077)"/><path class="b" d="M347.629,303.463v2.127H343.6V303.1S347.326,302.527,347.629,303.463Z" transform="translate(-339.715 -301.459)"/><path class="b" d="M355.866,309.057v1.763l-2.234,1.289-1.653-.956a8.416,8.416,0,0,1-6.4.289v-1.765l1.015-1.007-1.015.28a6.534,6.534,0,0,1-4.984-.57c-1-.577-1.467-1.21-1.464-1.861V304.8l.181-.75-.61-.355v-1.765l1.653.956a2.549,2.549,0,0,0-1.224,1.894v.02c.017.635.487,1.25,1.464,1.814,2.173,1.255,4.326.841,6.3.209,1.835-.6,3.17-1.3,4.228-.693.656.38.457.841-.28,1.268a3.669,3.669,0,0,1-3.15.183l-2.112,2.093a7.555,7.555,0,0,0,1.167.343,8.7,8.7,0,0,0,5.231-.629l1.653.955Z" transform="translate(-338.703 -301.254)"/><path class="b" d="M355.438,311.335V313.1l1.654.955V312.29Z" transform="translate(-342.163 -303.198)"/><g class="r"><path class="f" d="M350.669,301.077v2.043l-.7.736-1.29,1.351v-2.126Z" transform="translate(-340.766 -301.077)"/><path class="f" d="M347.629,303.463v2.127H343.6V303.1S347.326,302.527,347.629,303.463Z" transform="translate(-339.715 -301.459)"/><path class="f" d="M355.866,309.057v1.763l-2.234,1.289-1.653-.956a8.416,8.416,0,0,1-6.4.289v-1.765l1.015-1.007-1.015.28a6.534,6.534,0,0,1-4.984-.57c-1-.577-1.467-1.21-1.464-1.861V304.8l.181-.75-.61-.355v-1.765l1.653.956a2.549,2.549,0,0,0-1.224,1.894v.02c.017.635.487,1.25,1.464,1.814,2.173,1.255,4.326.841,6.3.209,1.835-.6,3.17-1.3,4.228-.693.656.38.457.841-.28,1.268a3.669,3.669,0,0,1-3.15.183l-2.112,2.093a7.555,7.555,0,0,0,1.167.343,8.7,8.7,0,0,0,5.231-.629l1.653.955Z" transform="translate(-338.703 -301.254)"/><path class="f" d="M355.438,311.335V313.1l1.654.955V312.29Z" transform="translate(-342.163 -303.198)"/></g></g><path class="b" d="M355.492,308.5l-1.279-.742a2.178,2.178,0,0,0,1.279-1.959,1.663,1.663,0,0,0-.011-.172,2.414,2.414,0,0,0-1.428-1.732v-.006a5.873,5.873,0,0,0-2.973-.775c-.083,0-.171.006-.255.006H350.8l-.265.016c-.078.006-.155.011-.233.022-.033.006-.066.006-.094.011a1.68,1.68,0,0,0-.177.022,11.869,11.869,0,0,0-1.445.3c-.227.061-.454.127-.675.2-.321.1-.637.2-.935.3-.122.044-.238.083-.355.122a10.938,10.938,0,0,1-1.982.564,2.054,2.054,0,0,1-.853-.033,1.74,1.74,0,0,1-.4-.166c-.5-.288-.576-.725.359-1.268a3.269,3.269,0,0,1,2.873-.3l1.987-2a8.51,8.51,0,0,0-5.995.332l-1.655-.952-2.254,1.3,1.655.953a2.558,2.558,0,0,0-1.229,1.9v.017c.022.637.487,1.251,1.467,1.816,2.175,1.257,4.329.842,6.3.2,1.832-.6,3.166-1.3,4.223-.692.659.382.459.842-.277,1.268a3.637,3.637,0,0,1-3.149.182l-2.115,2.1a8.129,8.129,0,0,0,1.168.343,8.719,8.719,0,0,0,5.231-.631l1.655.958,2.231-1.29Z" transform="translate(-338.703 -300.296)"/><path class="q" d="M355.492,308.5l-1.279-.742a2.178,2.178,0,0,0,1.279-1.959,1.663,1.663,0,0,0-.011-.172,2.414,2.414,0,0,0-1.428-1.732v-.006a5.873,5.873,0,0,0-2.973-.775c-.083,0-.171.006-.255.006H350.8l-.265.016c-.078.006-.155.011-.233.022-.033.006-.066.006-.094.011a1.68,1.68,0,0,0-.177.022,11.869,11.869,0,0,0-1.445.3c-.227.061-.454.127-.675.2-.321.1-.637.2-.935.3-.122.044-.238.083-.355.122a10.938,10.938,0,0,1-1.982.564,2.054,2.054,0,0,1-.853-.033,1.74,1.74,0,0,1-.4-.166c-.5-.288-.576-.725.359-1.268a3.269,3.269,0,0,1,2.873-.3l1.987-2a8.51,8.51,0,0,0-5.995.332l-1.655-.952-2.254,1.3,1.655.953a2.558,2.558,0,0,0-1.229,1.9v.017c.022.637.487,1.251,1.467,1.816,2.175,1.257,4.329.842,6.3.2,1.832-.6,3.166-1.3,4.223-.692.659.382.459.842-.277,1.268a3.637,3.637,0,0,1-3.149.182l-2.115,2.1a8.129,8.129,0,0,0,1.168.343,8.719,8.719,0,0,0,5.231-.631l1.655.958,2.231-1.29Z" transform="translate(-338.703 -300.296)"/></g></g></g><g transform="translate(0 4.147)"><path class="b" d="M126.7,228.059a14.283,14.283,0,0,0-5.291-4.893c-8.65-4.994-22.674-4.994-31.324,0a14.283,14.283,0,0,0-5.291,4.893H83.6v4.525h.016c.159,3.146,2.312,6.265,6.472,8.666,8.65,4.994,22.674,4.994,31.324,0,4.16-2.4,6.313-5.52,6.472-8.666h.016v-4.525Z" transform="translate(-83.601 -219.421)"/><path class="o" d="M126.7,228.059a14.283,14.283,0,0,0-5.291-4.893c-8.65-4.994-22.674-4.994-31.324,0a14.283,14.283,0,0,0-5.291,4.893H83.6v4.525h.016c.159,3.146,2.312,6.265,6.472,8.666,8.65,4.994,22.674,4.994,31.324,0,4.16-2.4,6.313-5.52,6.472-8.666h.016v-4.525Z" transform="translate(-83.601 -219.421)"/></g><g transform="translate(0)"><path class="b" d="M121.413,217.938c-8.65-4.993-22.674-4.993-31.324,0s-8.65,13.091,0,18.085,22.674,4.994,31.324,0S130.063,222.932,121.413,217.938Z" transform="translate(-83.601 -214.193)"/><path class="p" d="M121.413,217.938c-8.65-4.993-22.674-4.993-31.324,0s-8.65,13.091,0,18.085,22.674,4.994,31.324,0S130.063,222.932,121.413,217.938Z" transform="translate(-83.601 -214.193)"/><g transform="translate(0.966 0.962)"><g transform="translate(6.489 3.917)"><path class="b" d="M117.893,222.519a24.99,24.99,0,0,0-20.4,0C94.6,224,93,226.043,93,228.253s1.6,4.245,4.5,5.732a24.956,24.956,0,0,0,20.4,0c2.9-1.487,4.493-3.521,4.493-5.732S120.789,224,117.893,222.519Z" transform="translate(-92.999 -220.343)"/><path class="p" d="M117.893,222.519a24.99,24.99,0,0,0-20.4,0C94.6,224,93,226.043,93,228.253s1.6,4.245,4.5,5.732a24.956,24.956,0,0,0,20.4,0c2.9-1.487,4.493-3.521,4.493-5.732S120.789,224,117.893,222.519Z" transform="translate(-92.999 -220.343)"/></g><path class="b" d="M121.184,219.025A30.88,30.88,0,0,0,106,215.4a30.857,30.857,0,0,0-15.177,3.62c-3.875,2.237-6.006,5.147-6.006,8.208s2.131,5.972,6.006,8.208A30.908,30.908,0,0,0,106,239.056a30.931,30.931,0,0,0,15.182-3.615c3.869-2.237,6-5.152,6-8.208S125.053,221.261,121.184,219.025Zm-4.982,13.94a24.957,24.957,0,0,1-20.4,0c-2.9-1.487-4.5-3.521-4.5-5.732s1.6-4.249,4.5-5.734a24.99,24.99,0,0,1,20.4,0c2.9,1.486,4.493,3.524,4.493,5.734S119.1,231.478,116.2,232.964Z" transform="translate(-84.819 -215.405)"/><path class="q" d="M121.184,219.025A30.88,30.88,0,0,0,106,215.4a30.857,30.857,0,0,0-15.177,3.62c-3.875,2.237-6.006,5.147-6.006,8.208s2.131,5.972,6.006,8.208A30.908,30.908,0,0,0,106,239.056a30.931,30.931,0,0,0,15.182-3.615c3.869-2.237,6-5.152,6-8.208S125.053,221.261,121.184,219.025Zm-4.982,13.94a24.957,24.957,0,0,1-20.4,0c-2.9-1.487-4.5-3.521-4.5-5.732s1.6-4.249,4.5-5.734a24.99,24.99,0,0,1,20.4,0c2.9,1.486,4.493,3.524,4.493,5.734S119.1,231.478,116.2,232.964Z" transform="translate(-84.819 -215.405)"/></g></g><g transform="translate(8.219 5.638)"><ellipse class="b" cx="13.931" cy="7.149" rx="13.931" ry="7.149"/><ellipse class="o" cx="13.931" cy="7.149" rx="13.931" ry="7.149"/><g transform="translate(0.125 1.894)"><path class="b" d="M117.776,225.782c-5.44-2.792-14.261-2.792-19.7,0-2.25,1.155-3.566,2.606-3.955,4.108.389,1.5,1.705,2.954,3.955,4.108,5.44,2.792,14.261,2.792,19.7,0,2.25-1.154,3.566-2.605,3.956-4.107C121.343,228.388,120.026,226.936,117.776,225.782Z" transform="translate(-94.12 -223.688)"/><path class="p" d="M117.776,225.782c-5.44-2.792-14.261-2.792-19.7,0-2.25,1.155-3.566,2.606-3.955,4.108.389,1.5,1.705,2.954,3.955,4.108,5.44,2.792,14.261,2.792,19.7,0,2.25-1.154,3.566-2.605,3.956-4.107C121.343,228.388,120.026,226.936,117.776,225.782Z" transform="translate(-94.12 -223.688)"/></g></g><g transform="translate(13.566 7.221)"><g transform="translate(0 0.62)"><path class="b" d="M112.669,224.077v2.042l-.7.736-1.29,1.351v-2.126Z" transform="translate(-102.766 -224.077)"/><path class="b" d="M109.629,226.463v2.127H105.6V226.1S109.326,225.527,109.629,226.463Z" transform="translate(-101.715 -224.46)"/><path class="b" d="M117.866,232.057v1.763l-2.234,1.289-1.653-.956a8.416,8.416,0,0,1-6.4.289v-1.765l1.015-1.007-1.015.28a6.534,6.534,0,0,1-4.984-.57c-1-.577-1.467-1.21-1.464-1.861V227.8l.181-.75-.61-.355v-1.765l1.653.955a2.551,2.551,0,0,0-1.224,1.9v.02c.017.635.487,1.25,1.464,1.814,2.173,1.255,4.326.841,6.3.209,1.835-.6,3.17-1.3,4.228-.693.656.38.457.841-.28,1.268a3.666,3.666,0,0,1-3.15.182l-2.112,2.094a7.542,7.542,0,0,0,1.167.343,8.7,8.7,0,0,0,5.231-.629l1.653.955Z" transform="translate(-100.703 -224.254)"/><path class="b" d="M117.438,234.335V236.1l1.654.955V235.29Z" transform="translate(-104.163 -226.198)"/><g class="r"><path class="f" d="M112.669,224.077v2.042l-.7.736-1.29,1.351v-2.126Z" transform="translate(-102.766 -224.077)"/><path class="f" d="M109.629,226.463v2.127H105.6V226.1S109.326,225.527,109.629,226.463Z" transform="translate(-101.715 -224.46)"/><path class="f" d="M117.866,232.057v1.763l-2.234,1.289-1.653-.956a8.416,8.416,0,0,1-6.4.289v-1.765l1.015-1.007-1.015.28a6.534,6.534,0,0,1-4.984-.57c-1-.577-1.467-1.21-1.464-1.861V227.8l.181-.75-.61-.355v-1.765l1.653.955a2.551,2.551,0,0,0-1.224,1.9v.02c.017.635.487,1.25,1.464,1.814,2.173,1.255,4.326.841,6.3.209,1.835-.6,3.17-1.3,4.228-.693.656.38.457.841-.28,1.268a3.666,3.666,0,0,1-3.15.182l-2.112,2.094a7.542,7.542,0,0,0,1.167.343,8.7,8.7,0,0,0,5.231-.629l1.653.955Z" transform="translate(-100.703 -224.254)"/><path class="f" d="M117.438,234.335V236.1l1.654.955V235.29Z" transform="translate(-104.163 -226.198)"/></g></g><path class="b" d="M117.492,231.5l-1.279-.742a2.178,2.178,0,0,0,1.279-1.959,1.651,1.651,0,0,0-.011-.171,2.414,2.414,0,0,0-1.428-1.733v-.006a5.872,5.872,0,0,0-2.973-.774c-.082,0-.171,0-.255,0H112.8l-.265.017c-.078.006-.155.011-.233.022-.033.006-.066.006-.094.011a1.673,1.673,0,0,0-.177.022,12.05,12.05,0,0,0-1.445.3c-.227.061-.454.127-.675.2-.321.1-.637.2-.935.3-.122.044-.238.083-.355.122a10.929,10.929,0,0,1-1.982.564,2.055,2.055,0,0,1-.853-.033,1.741,1.741,0,0,1-.4-.166c-.5-.288-.576-.725.359-1.268a3.269,3.269,0,0,1,2.873-.3l1.987-2a8.511,8.511,0,0,0-5.995.332l-1.655-.952-2.254,1.3,1.656.953a2.558,2.558,0,0,0-1.229,1.9v.017c.022.637.487,1.251,1.467,1.816,2.175,1.256,4.329.842,6.3.2,1.832-.6,3.166-1.3,4.223-.692.659.382.459.842-.277,1.268a3.637,3.637,0,0,1-3.149.182l-2.115,2.1a8.138,8.138,0,0,0,1.168.343,8.719,8.719,0,0,0,5.231-.631l1.655.957,2.231-1.29Z" transform="translate(-100.703 -223.296)"/><path class="q" d="M117.492,231.5l-1.279-.742a2.178,2.178,0,0,0,1.279-1.959,1.651,1.651,0,0,0-.011-.171,2.414,2.414,0,0,0-1.428-1.733v-.006a5.872,5.872,0,0,0-2.973-.774c-.082,0-.171,0-.255,0H112.8l-.265.017c-.078.006-.155.011-.233.022-.033.006-.066.006-.094.011a1.673,1.673,0,0,0-.177.022,12.05,12.05,0,0,0-1.445.3c-.227.061-.454.127-.675.2-.321.1-.637.2-.935.3-.122.044-.238.083-.355.122a10.929,10.929,0,0,1-1.982.564,2.055,2.055,0,0,1-.853-.033,1.741,1.741,0,0,1-.4-.166c-.5-.288-.576-.725.359-1.268a3.269,3.269,0,0,1,2.873-.3l1.987-2a8.511,8.511,0,0,0-5.995.332l-1.655-.952-2.254,1.3,1.656.953a2.558,2.558,0,0,0-1.229,1.9v.017c.022.637.487,1.251,1.467,1.816,2.175,1.256,4.329.842,6.3.2,1.832-.6,3.166-1.3,4.223-.692.659.382.459.842-.277,1.268a3.637,3.637,0,0,1-3.149.182l-2.115,2.1a8.138,8.138,0,0,0,1.168.343,8.719,8.719,0,0,0,5.231-.631l1.655.957,2.231-1.29Z" transform="translate(-100.703 -223.296)"/></g><g transform="translate(223.695 3.173)"><g transform="translate(0.793 19.038)"><g transform="translate(0 4.147)"><path class="b" d="M409.7,256.059a14.29,14.29,0,0,0-5.291-4.893c-8.65-4.994-22.674-4.994-31.324,0a14.283,14.283,0,0,0-5.291,4.893h-1.2v4.525h.016c.159,3.146,2.312,6.265,6.472,8.667,8.65,4.993,22.674,4.993,31.324,0,4.16-2.4,6.313-5.521,6.472-8.667h.016v-4.525Z" transform="translate(-366.601 -247.421)"/><path class="o" d="M409.7,256.059a14.29,14.29,0,0,0-5.291-4.893c-8.65-4.994-22.674-4.994-31.324,0a14.283,14.283,0,0,0-5.291,4.893h-1.2v4.525h.016c.159,3.146,2.312,6.265,6.472,8.667,8.65,4.993,22.674,4.993,31.324,0,4.16-2.4,6.313-5.521,6.472-8.667h.016v-4.525Z" transform="translate(-366.601 -247.421)"/></g><g transform="translate(0)"><path class="b" d="M404.413,245.938c-8.65-4.993-22.674-4.993-31.324,0s-8.65,13.091,0,18.085,22.674,4.994,31.324,0S413.063,250.932,404.413,245.938Z" transform="translate(-366.601 -242.193)"/><path class="p" d="M404.413,245.938c-8.65-4.993-22.674-4.993-31.324,0s-8.65,13.091,0,18.085,22.674,4.994,31.324,0S413.063,250.932,404.413,245.938Z" transform="translate(-366.601 -242.193)"/><g transform="translate(0.966 0.962)"><g transform="translate(6.489 3.917)"><path class="b" d="M400.893,250.519a24.99,24.99,0,0,0-20.4,0c-2.9,1.486-4.5,3.524-4.5,5.735s1.6,4.245,4.5,5.73a24.948,24.948,0,0,0,20.4,0c2.9-1.486,4.493-3.52,4.493-5.73S403.789,252,400.893,250.519Z" transform="translate(-375.999 -248.343)"/><path class="p" d="M400.893,250.519a24.99,24.99,0,0,0-20.4,0c-2.9,1.486-4.5,3.524-4.5,5.735s1.6,4.245,4.5,5.73a24.948,24.948,0,0,0,20.4,0c2.9-1.486,4.493-3.52,4.493-5.73S403.789,252,400.893,250.519Z" transform="translate(-375.999 -248.343)"/></g><path class="b" d="M404.184,247.025a33.639,33.639,0,0,0-30.359,0c-3.875,2.237-6.006,5.147-6.006,8.208s2.131,5.972,6.006,8.208a33.685,33.685,0,0,0,30.359,0c3.869-2.236,6-5.152,6-8.208S408.053,249.261,404.184,247.025ZM399.2,260.963a24.948,24.948,0,0,1-20.4,0c-2.9-1.486-4.5-3.52-4.5-5.73s1.6-4.249,4.5-5.735a24.989,24.989,0,0,1,20.4,0c2.9,1.486,4.493,3.524,4.493,5.735S402.1,259.478,399.2,260.963Z" transform="translate(-367.819 -243.405)"/><path class="q" d="M404.184,247.025a33.639,33.639,0,0,0-30.359,0c-3.875,2.237-6.006,5.147-6.006,8.208s2.131,5.972,6.006,8.208a33.685,33.685,0,0,0,30.359,0c3.869-2.236,6-5.152,6-8.208S408.053,249.261,404.184,247.025ZM399.2,260.963a24.948,24.948,0,0,1-20.4,0c-2.9-1.486-4.5-3.52-4.5-5.73s1.6-4.249,4.5-5.735a24.989,24.989,0,0,1,20.4,0c2.9,1.486,4.493,3.524,4.493,5.735S402.1,259.478,399.2,260.963Z" transform="translate(-367.819 -243.405)"/></g></g><g transform="translate(8.219 5.638)"><ellipse class="b" cx="13.931" cy="7.149" rx="13.931" ry="7.149"/><ellipse class="o" cx="13.931" cy="7.149" rx="13.931" ry="7.149"/><g transform="translate(0.125 1.894)"><path class="b" d="M400.776,253.781c-5.44-2.791-14.261-2.791-19.7,0-2.25,1.155-3.566,2.606-3.955,4.108.389,1.5,1.705,2.954,3.955,4.108,5.44,2.792,14.261,2.792,19.7,0,2.25-1.154,3.566-2.605,3.956-4.107C404.342,256.387,403.026,254.936,400.776,253.781Z" transform="translate(-377.12 -251.688)"/><path class="p" d="M400.776,253.781c-5.44-2.791-14.261-2.791-19.7,0-2.25,1.155-3.566,2.606-3.955,4.108.389,1.5,1.705,2.954,3.955,4.108,5.44,2.792,14.261,2.792,19.7,0,2.25-1.154,3.566-2.605,3.956-4.107C404.342,256.387,403.026,254.936,400.776,253.781Z" transform="translate(-377.12 -251.688)"/></g></g><g transform="translate(13.566 7.221)"><g transform="translate(0 0.62)"><path class="b" d="M395.669,252.077v2.042l-.7.736-1.29,1.351v-2.126Z" transform="translate(-385.766 -252.077)"/><path class="b" d="M392.629,254.463v2.127H388.6V254.1S392.326,253.527,392.629,254.463Z" transform="translate(-384.715 -252.46)"/><path class="b" d="M400.866,260.057v1.763l-2.234,1.289-1.653-.956a8.415,8.415,0,0,1-6.4.289v-1.765l1.015-1.007-1.015.28a6.534,6.534,0,0,1-4.984-.57c-1-.578-1.467-1.21-1.464-1.861V255.8l.181-.75-.61-.355v-1.765l1.653.956a2.549,2.549,0,0,0-1.224,1.894v.02c.017.635.487,1.25,1.464,1.814,2.173,1.255,4.326.841,6.3.209,1.835-.6,3.17-1.3,4.228-.693.656.38.457.841-.28,1.268a3.67,3.67,0,0,1-3.15.183l-2.112,2.093a7.561,7.561,0,0,0,1.167.343,8.7,8.7,0,0,0,5.231-.629l1.653.955Z" transform="translate(-383.703 -252.254)"/><path class="b" d="M400.438,262.335V264.1l1.654.955V263.29Z" transform="translate(-387.163 -254.198)"/><g class="r"><path class="f" d="M395.669,252.077v2.042l-.7.736-1.29,1.351v-2.126Z" transform="translate(-385.766 -252.077)"/><path class="f" d="M392.629,254.463v2.127H388.6V254.1S392.326,253.527,392.629,254.463Z" transform="translate(-384.715 -252.46)"/><path class="f" d="M400.866,260.057v1.763l-2.234,1.289-1.653-.956a8.415,8.415,0,0,1-6.4.289v-1.765l1.015-1.007-1.015.28a6.534,6.534,0,0,1-4.984-.57c-1-.578-1.467-1.21-1.464-1.861V255.8l.181-.75-.61-.355v-1.765l1.653.956a2.549,2.549,0,0,0-1.224,1.894v.02c.017.635.487,1.25,1.464,1.814,2.173,1.255,4.326.841,6.3.209,1.835-.6,3.17-1.3,4.228-.693.656.38.457.841-.28,1.268a3.67,3.67,0,0,1-3.15.183l-2.112,2.093a7.561,7.561,0,0,0,1.167.343,8.7,8.7,0,0,0,5.231-.629l1.653.955Z" transform="translate(-383.703 -252.254)"/><path class="f" d="M400.438,262.335V264.1l1.654.955V263.29Z" transform="translate(-387.163 -254.198)"/></g></g><path class="b" d="M400.492,259.5l-1.279-.742a2.178,2.178,0,0,0,1.279-1.959,1.689,1.689,0,0,0-.011-.172,2.415,2.415,0,0,0-1.428-1.732v-.006a5.873,5.873,0,0,0-2.973-.775c-.083,0-.171.006-.255.006H395.8l-.265.016c-.078.006-.156.011-.233.022-.033.006-.066.006-.094.011a1.692,1.692,0,0,0-.177.022,11.894,11.894,0,0,0-1.445.3c-.227.061-.454.127-.675.2-.321.1-.637.2-.935.3-.122.044-.238.083-.355.122a10.933,10.933,0,0,1-1.982.564,2.054,2.054,0,0,1-.853-.033,1.739,1.739,0,0,1-.4-.166c-.5-.288-.576-.725.359-1.268a3.269,3.269,0,0,1,2.873-.3l1.987-2a8.511,8.511,0,0,0-5.995.332l-1.655-.952-2.254,1.3,1.655.953a2.558,2.558,0,0,0-1.229,1.9v.017c.022.637.487,1.251,1.467,1.816,2.175,1.257,4.329.842,6.3.2,1.832-.6,3.166-1.3,4.223-.692.659.382.459.842-.277,1.268a3.637,3.637,0,0,1-3.149.182l-2.115,2.1a8.131,8.131,0,0,0,1.168.343,8.719,8.719,0,0,0,5.231-.631l1.655.958,2.231-1.29Z" transform="translate(-383.703 -251.296)"/><path class="q" d="M400.492,259.5l-1.279-.742a2.178,2.178,0,0,0,1.279-1.959,1.689,1.689,0,0,0-.011-.172,2.415,2.415,0,0,0-1.428-1.732v-.006a5.873,5.873,0,0,0-2.973-.775c-.083,0-.171.006-.255.006H395.8l-.265.016c-.078.006-.156.011-.233.022-.033.006-.066.006-.094.011a1.692,1.692,0,0,0-.177.022,11.894,11.894,0,0,0-1.445.3c-.227.061-.454.127-.675.2-.321.1-.637.2-.935.3-.122.044-.238.083-.355.122a10.933,10.933,0,0,1-1.982.564,2.054,2.054,0,0,1-.853-.033,1.739,1.739,0,0,1-.4-.166c-.5-.288-.576-.725.359-1.268a3.269,3.269,0,0,1,2.873-.3l1.987-2a8.511,8.511,0,0,0-5.995.332l-1.655-.952-2.254,1.3,1.655.953a2.558,2.558,0,0,0-1.229,1.9v.017c.022.637.487,1.251,1.467,1.816,2.175,1.257,4.329.842,6.3.2,1.832-.6,3.166-1.3,4.223-.692.659.382.459.842-.277,1.268a3.637,3.637,0,0,1-3.149.182l-2.115,2.1a8.131,8.131,0,0,0,1.168.343,8.719,8.719,0,0,0,5.231-.631l1.655.958,2.231-1.29Z" transform="translate(-383.703 -251.296)"/></g></g><g transform="translate(2.38 12.692)"><g transform="translate(0 4.147)"><path class="b" d="M411.7,248.059a14.283,14.283,0,0,0-5.291-4.893c-8.65-4.994-22.674-4.994-31.324,0a14.283,14.283,0,0,0-5.291,4.893h-1.2v4.525h.016c.159,3.146,2.312,6.265,6.472,8.667,8.65,4.993,22.674,4.993,31.324,0,4.16-2.4,6.313-5.521,6.472-8.667h.016v-4.525Z" transform="translate(-368.601 -239.421)"/><path class="o" d="M411.7,248.059a14.283,14.283,0,0,0-5.291-4.893c-8.65-4.994-22.674-4.994-31.324,0a14.283,14.283,0,0,0-5.291,4.893h-1.2v4.525h.016c.159,3.146,2.312,6.265,6.472,8.667,8.65,4.993,22.674,4.993,31.324,0,4.16-2.4,6.313-5.521,6.472-8.667h.016v-4.525Z" transform="translate(-368.601 -239.421)"/></g><g transform="translate(0)"><path class="b" d="M406.413,237.938c-8.65-4.993-22.674-4.993-31.324,0s-8.65,13.091,0,18.085,22.674,4.994,31.324,0S415.063,242.932,406.413,237.938Z" transform="translate(-368.601 -234.193)"/><path class="p" d="M406.413,237.938c-8.65-4.993-22.674-4.993-31.324,0s-8.65,13.091,0,18.085,22.674,4.994,31.324,0S415.063,242.932,406.413,237.938Z" transform="translate(-368.601 -234.193)"/><g transform="translate(0.966 0.962)"><g transform="translate(6.489 3.917)"><path class="b" d="M402.893,242.519a24.99,24.99,0,0,0-20.4,0c-2.9,1.486-4.5,3.524-4.5,5.734s1.6,4.245,4.5,5.731a24.948,24.948,0,0,0,20.4,0c2.9-1.486,4.493-3.52,4.493-5.731S405.789,244,402.893,242.519Z" transform="translate(-377.999 -240.343)"/><path class="p" d="M402.893,242.519a24.99,24.99,0,0,0-20.4,0c-2.9,1.486-4.5,3.524-4.5,5.734s1.6,4.245,4.5,5.731a24.948,24.948,0,0,0,20.4,0c2.9-1.486,4.493-3.52,4.493-5.731S405.789,244,402.893,242.519Z" transform="translate(-377.999 -240.343)"/></g><path class="b" d="M406.184,239.025a33.639,33.639,0,0,0-30.359,0c-3.875,2.237-6.006,5.147-6.006,8.208s2.131,5.972,6.006,8.208a33.685,33.685,0,0,0,30.359,0c3.869-2.236,6-5.152,6-8.208S410.053,241.261,406.184,239.025ZM401.2,252.963a24.948,24.948,0,0,1-20.4,0c-2.9-1.486-4.5-3.52-4.5-5.731s1.6-4.249,4.5-5.734a24.989,24.989,0,0,1,20.4,0c2.9,1.486,4.493,3.524,4.493,5.734S404.1,251.478,401.2,252.963Z" transform="translate(-369.819 -235.405)"/><path class="q" d="M406.184,239.025a33.639,33.639,0,0,0-30.359,0c-3.875,2.237-6.006,5.147-6.006,8.208s2.131,5.972,6.006,8.208a33.685,33.685,0,0,0,30.359,0c3.869-2.236,6-5.152,6-8.208S410.053,241.261,406.184,239.025ZM401.2,252.963a24.948,24.948,0,0,1-20.4,0c-2.9-1.486-4.5-3.52-4.5-5.731s1.6-4.249,4.5-5.734a24.989,24.989,0,0,1,20.4,0c2.9,1.486,4.493,3.524,4.493,5.734S404.1,251.478,401.2,252.963Z" transform="translate(-369.819 -235.405)"/></g></g><g transform="translate(8.219 5.638)"><ellipse class="b" cx="13.931" cy="7.149" rx="13.931" ry="7.149"/><ellipse class="o" cx="13.931" cy="7.149" rx="13.931" ry="7.149"/><g transform="translate(0.125 1.894)"><path class="b" d="M402.776,245.782c-5.44-2.792-14.261-2.792-19.7,0-2.25,1.155-3.566,2.606-3.955,4.108.389,1.5,1.705,2.954,3.955,4.108,5.44,2.792,14.261,2.792,19.7,0,2.25-1.154,3.566-2.605,3.956-4.107C406.342,248.388,405.026,246.936,402.776,245.782Z" transform="translate(-379.12 -243.688)"/><path class="p" d="M402.776,245.782c-5.44-2.792-14.261-2.792-19.7,0-2.25,1.155-3.566,2.606-3.955,4.108.389,1.5,1.705,2.954,3.955,4.108,5.44,2.792,14.261,2.792,19.7,0,2.25-1.154,3.566-2.605,3.956-4.107C406.342,248.388,405.026,246.936,402.776,245.782Z" transform="translate(-379.12 -243.688)"/></g></g><g transform="translate(13.566 7.221)"><g transform="translate(0 0.62)"><path class="b" d="M397.669,244.077v2.043l-.7.736-1.29,1.351v-2.126Z" transform="translate(-387.766 -244.077)"/><path class="b" d="M394.629,246.463v2.127H390.6V246.1S394.326,245.527,394.629,246.463Z" transform="translate(-386.715 -244.46)"/><path class="b" d="M402.866,252.057v1.763l-2.234,1.289-1.653-.956a8.416,8.416,0,0,1-6.4.289v-1.765l1.015-1.007-1.015.28a6.534,6.534,0,0,1-4.984-.57c-1-.577-1.467-1.21-1.464-1.861V247.8l.181-.75-.61-.355v-1.765l1.653.955a2.551,2.551,0,0,0-1.224,1.9v.02c.017.635.487,1.25,1.464,1.814,2.173,1.255,4.326.841,6.3.209,1.835-.6,3.17-1.3,4.228-.693.656.38.457.841-.28,1.268a3.67,3.67,0,0,1-3.15.183l-2.112,2.093a7.554,7.554,0,0,0,1.167.343,8.7,8.7,0,0,0,5.231-.629l1.653.955Z" transform="translate(-385.703 -244.254)"/><path class="b" d="M402.438,254.335V256.1l1.654.955V255.29Z" transform="translate(-389.163 -246.198)"/><g class="r"><path class="f" d="M397.669,244.077v2.043l-.7.736-1.29,1.351v-2.126Z" transform="translate(-387.766 -244.077)"/><path class="f" d="M394.629,246.463v2.127H390.6V246.1S394.326,245.527,394.629,246.463Z" transform="translate(-386.715 -244.46)"/><path class="f" d="M402.866,252.057v1.763l-2.234,1.289-1.653-.956a8.416,8.416,0,0,1-6.4.289v-1.765l1.015-1.007-1.015.28a6.534,6.534,0,0,1-4.984-.57c-1-.577-1.467-1.21-1.464-1.861V247.8l.181-.75-.61-.355v-1.765l1.653.955a2.551,2.551,0,0,0-1.224,1.9v.02c.017.635.487,1.25,1.464,1.814,2.173,1.255,4.326.841,6.3.209,1.835-.6,3.17-1.3,4.228-.693.656.38.457.841-.28,1.268a3.67,3.67,0,0,1-3.15.183l-2.112,2.093a7.554,7.554,0,0,0,1.167.343,8.7,8.7,0,0,0,5.231-.629l1.653.955Z" transform="translate(-385.703 -244.254)"/><path class="f" d="M402.438,254.335V256.1l1.654.955V255.29Z" transform="translate(-389.163 -246.198)"/></g></g><path class="b" d="M402.492,251.5l-1.279-.742a2.178,2.178,0,0,0,1.279-1.959,1.64,1.64,0,0,0-.011-.171,2.414,2.414,0,0,0-1.428-1.733v-.006a5.871,5.871,0,0,0-2.973-.774c-.083,0-.171,0-.255,0H397.8l-.265.017c-.078.006-.155.011-.233.022-.033.006-.066.006-.094.011a1.682,1.682,0,0,0-.177.022,12.035,12.035,0,0,0-1.445.3c-.227.061-.454.127-.675.2-.321.1-.637.2-.935.3-.122.044-.238.083-.355.122a10.928,10.928,0,0,1-1.982.564,2.054,2.054,0,0,1-.853-.033,1.743,1.743,0,0,1-.4-.166c-.5-.288-.576-.725.359-1.268a3.269,3.269,0,0,1,2.873-.3l1.987-2a8.511,8.511,0,0,0-5.995.332l-1.655-.952-2.254,1.3,1.656.953a2.558,2.558,0,0,0-1.229,1.9v.017c.022.637.487,1.251,1.467,1.816,2.175,1.257,4.329.842,6.3.2,1.832-.6,3.166-1.3,4.223-.692.659.382.459.842-.277,1.268a3.637,3.637,0,0,1-3.149.182l-2.115,2.1a8.139,8.139,0,0,0,1.168.343,8.719,8.719,0,0,0,5.231-.631l1.655.957,2.231-1.29Z" transform="translate(-385.703 -243.296)"/><path class="q" d="M402.492,251.5l-1.279-.742a2.178,2.178,0,0,0,1.279-1.959,1.64,1.64,0,0,0-.011-.171,2.414,2.414,0,0,0-1.428-1.733v-.006a5.871,5.871,0,0,0-2.973-.774c-.083,0-.171,0-.255,0H397.8l-.265.017c-.078.006-.155.011-.233.022-.033.006-.066.006-.094.011a1.682,1.682,0,0,0-.177.022,12.035,12.035,0,0,0-1.445.3c-.227.061-.454.127-.675.2-.321.1-.637.2-.935.3-.122.044-.238.083-.355.122a10.928,10.928,0,0,1-1.982.564,2.054,2.054,0,0,1-.853-.033,1.743,1.743,0,0,1-.4-.166c-.5-.288-.576-.725.359-1.268a3.269,3.269,0,0,1,2.873-.3l1.987-2a8.511,8.511,0,0,0-5.995.332l-1.655-.952-2.254,1.3,1.656.953a2.558,2.558,0,0,0-1.229,1.9v.017c.022.637.487,1.251,1.467,1.816,2.175,1.257,4.329.842,6.3.2,1.832-.6,3.166-1.3,4.223-.692.659.382.459.842-.277,1.268a3.637,3.637,0,0,1-3.149.182l-2.115,2.1a8.139,8.139,0,0,0,1.168.343,8.719,8.719,0,0,0,5.231-.631l1.655.957,2.231-1.29Z" transform="translate(-385.703 -243.296)"/></g></g><g transform="translate(0 7.139)"><g transform="translate(0 4.147)"><path class="b" d="M408.7,241.059a14.284,14.284,0,0,0-5.291-4.893c-8.649-4.994-22.674-4.994-31.324,0a14.284,14.284,0,0,0-5.291,4.893h-1.2v4.525h.016c.159,3.146,2.312,6.265,6.472,8.667,8.65,4.993,22.674,4.993,31.324,0,4.16-2.4,6.313-5.521,6.472-8.667h.016v-4.525Z" transform="translate(-365.601 -232.421)"/><path class="o" d="M408.7,241.059a14.284,14.284,0,0,0-5.291-4.893c-8.649-4.994-22.674-4.994-31.324,0a14.284,14.284,0,0,0-5.291,4.893h-1.2v4.525h.016c.159,3.146,2.312,6.265,6.472,8.667,8.65,4.993,22.674,4.993,31.324,0,4.16-2.4,6.313-5.521,6.472-8.667h.016v-4.525Z" transform="translate(-365.601 -232.421)"/></g><g transform="translate(0)"><path class="b" d="M403.413,230.938c-8.65-4.993-22.674-4.993-31.324,0s-8.65,13.091,0,18.085,22.674,4.994,31.324,0S412.063,235.932,403.413,230.938Z" transform="translate(-365.601 -227.193)"/><path class="p" d="M403.413,230.938c-8.65-4.993-22.674-4.993-31.324,0s-8.65,13.091,0,18.085,22.674,4.994,31.324,0S412.063,235.932,403.413,230.938Z" transform="translate(-365.601 -227.193)"/><g transform="translate(0.966 0.962)"><g transform="translate(6.489 3.917)"><path class="b" d="M399.893,235.519a24.99,24.99,0,0,0-20.4,0c-2.9,1.486-4.5,3.524-4.5,5.734s1.6,4.245,4.5,5.732a24.957,24.957,0,0,0,20.4,0c2.9-1.487,4.493-3.521,4.493-5.732S402.789,237,399.893,235.519Z" transform="translate(-374.999 -233.343)"/><path class="p" d="M399.893,235.519a24.99,24.99,0,0,0-20.4,0c-2.9,1.486-4.5,3.524-4.5,5.734s1.6,4.245,4.5,5.732a24.957,24.957,0,0,0,20.4,0c2.9-1.487,4.493-3.521,4.493-5.732S402.789,237,399.893,235.519Z" transform="translate(-374.999 -233.343)"/></g><path class="b" d="M403.184,232.025a33.639,33.639,0,0,0-30.359,0c-3.875,2.237-6.006,5.147-6.006,8.208s2.131,5.972,6.006,8.208a33.685,33.685,0,0,0,30.359,0c3.87-2.237,6-5.152,6-8.208S407.053,234.261,403.184,232.025Zm-4.982,13.94a24.956,24.956,0,0,1-20.4,0c-2.9-1.487-4.5-3.521-4.5-5.732s1.6-4.249,4.5-5.734a24.99,24.99,0,0,1,20.4,0c2.9,1.486,4.493,3.524,4.493,5.734S401.1,244.478,398.2,245.964Z" transform="translate(-366.819 -228.405)"/><path class="q" d="M403.184,232.025a33.639,33.639,0,0,0-30.359,0c-3.875,2.237-6.006,5.147-6.006,8.208s2.131,5.972,6.006,8.208a33.685,33.685,0,0,0,30.359,0c3.87-2.237,6-5.152,6-8.208S407.053,234.261,403.184,232.025Zm-4.982,13.94a24.956,24.956,0,0,1-20.4,0c-2.9-1.487-4.5-3.521-4.5-5.732s1.6-4.249,4.5-5.734a24.99,24.99,0,0,1,20.4,0c2.9,1.486,4.493,3.524,4.493,5.734S401.1,244.478,398.2,245.964Z" transform="translate(-366.819 -228.405)"/></g></g><g transform="translate(8.219 5.638)"><ellipse class="b" cx="13.931" cy="7.149" rx="13.931" ry="7.149"/><ellipse class="o" cx="13.931" cy="7.149" rx="13.931" ry="7.149"/><g transform="translate(0.125 1.894)"><path class="b" d="M399.776,238.782c-5.44-2.792-14.261-2.792-19.7,0-2.25,1.155-3.566,2.606-3.955,4.108.389,1.5,1.706,2.954,3.955,4.108,5.44,2.792,14.261,2.792,19.7,0,2.25-1.154,3.566-2.6,3.956-4.107C403.342,241.388,402.026,239.936,399.776,238.782Z" transform="translate(-376.12 -236.688)"/><path class="p" d="M399.776,238.782c-5.44-2.792-14.261-2.792-19.7,0-2.25,1.155-3.566,2.606-3.955,4.108.389,1.5,1.706,2.954,3.955,4.108,5.44,2.792,14.261,2.792,19.7,0,2.25-1.154,3.566-2.6,3.956-4.107C403.342,241.388,402.026,239.936,399.776,238.782Z" transform="translate(-376.12 -236.688)"/></g></g><g transform="translate(13.566 7.221)"><g transform="translate(0 0.62)"><path class="b" d="M394.669,237.077v2.043l-.7.736-1.29,1.351v-2.126Z" transform="translate(-384.766 -237.077)"/><path class="b" d="M391.629,239.463v2.127H387.6V239.1S391.326,238.527,391.629,239.463Z" transform="translate(-383.715 -237.46)"/><path class="b" d="M399.866,245.057v1.763l-2.234,1.289-1.653-.956a8.416,8.416,0,0,1-6.4.289v-1.765l1.015-1.007-1.015.28a6.534,6.534,0,0,1-4.984-.57c-1-.577-1.467-1.21-1.464-1.861V240.8l.181-.75-.61-.355v-1.765l1.653.955a2.551,2.551,0,0,0-1.224,1.9v.02c.017.635.487,1.25,1.464,1.814,2.173,1.255,4.326.841,6.3.209,1.835-.6,3.17-1.3,4.228-.693.656.38.457.841-.28,1.268a3.666,3.666,0,0,1-3.15.182l-2.112,2.094a7.558,7.558,0,0,0,1.167.343,8.7,8.7,0,0,0,5.231-.629l1.653.955Z" transform="translate(-382.703 -237.254)"/><path class="b" d="M399.438,247.335V249.1l1.654.955V248.29Z" transform="translate(-386.163 -239.198)"/><g class="r"><path class="f" d="M394.669,237.077v2.043l-.7.736-1.29,1.351v-2.126Z" transform="translate(-384.766 -237.077)"/><path class="f" d="M391.629,239.463v2.127H387.6V239.1S391.326,238.527,391.629,239.463Z" transform="translate(-383.715 -237.46)"/><path class="f" d="M399.866,245.057v1.763l-2.234,1.289-1.653-.956a8.416,8.416,0,0,1-6.4.289v-1.765l1.015-1.007-1.015.28a6.534,6.534,0,0,1-4.984-.57c-1-.577-1.467-1.21-1.464-1.861V240.8l.181-.75-.61-.355v-1.765l1.653.955a2.551,2.551,0,0,0-1.224,1.9v.02c.017.635.487,1.25,1.464,1.814,2.173,1.255,4.326.841,6.3.209,1.835-.6,3.17-1.3,4.228-.693.656.38.457.841-.28,1.268a3.666,3.666,0,0,1-3.15.182l-2.112,2.094a7.558,7.558,0,0,0,1.167.343,8.7,8.7,0,0,0,5.231-.629l1.653.955Z" transform="translate(-382.703 -237.254)"/><path class="f" d="M399.438,247.335V249.1l1.654.955V248.29Z" transform="translate(-386.163 -239.198)"/></g></g><path class="b" d="M399.492,244.5l-1.279-.742a2.178,2.178,0,0,0,1.279-1.959,1.658,1.658,0,0,0-.011-.171,2.414,2.414,0,0,0-1.428-1.733v-.006a5.872,5.872,0,0,0-2.973-.774c-.083,0-.171,0-.255,0H394.8l-.265.017c-.078.006-.155.011-.233.022-.033.006-.066.006-.094.011a1.681,1.681,0,0,0-.177.022,12.037,12.037,0,0,0-1.445.3c-.227.061-.454.127-.675.2-.321.1-.637.2-.935.3-.122.044-.238.083-.355.122a10.93,10.93,0,0,1-1.982.564,2.054,2.054,0,0,1-.853-.033,1.741,1.741,0,0,1-.4-.166c-.5-.288-.576-.725.359-1.268a3.269,3.269,0,0,1,2.873-.3l1.987-2a8.511,8.511,0,0,0-5.994.332l-1.655-.952-2.254,1.3,1.656.953a2.558,2.558,0,0,0-1.229,1.9v.017c.022.637.487,1.251,1.467,1.816,2.175,1.257,4.329.842,6.3.2,1.832-.6,3.166-1.3,4.223-.692.659.382.459.842-.277,1.268a3.637,3.637,0,0,1-3.149.182l-2.115,2.1a8.131,8.131,0,0,0,1.168.343,8.719,8.719,0,0,0,5.231-.631l1.655.957,2.23-1.29Z" transform="translate(-382.703 -236.296)"/><path class="q" d="M399.492,244.5l-1.279-.742a2.178,2.178,0,0,0,1.279-1.959,1.658,1.658,0,0,0-.011-.171,2.414,2.414,0,0,0-1.428-1.733v-.006a5.872,5.872,0,0,0-2.973-.774c-.083,0-.171,0-.255,0H394.8l-.265.017c-.078.006-.155.011-.233.022-.033.006-.066.006-.094.011a1.681,1.681,0,0,0-.177.022,12.037,12.037,0,0,0-1.445.3c-.227.061-.454.127-.675.2-.321.1-.637.2-.935.3-.122.044-.238.083-.355.122a10.93,10.93,0,0,1-1.982.564,2.054,2.054,0,0,1-.853-.033,1.741,1.741,0,0,1-.4-.166c-.5-.288-.576-.725.359-1.268a3.269,3.269,0,0,1,2.873-.3l1.987-2a8.511,8.511,0,0,0-5.994.332l-1.655-.952-2.254,1.3,1.656.953a2.558,2.558,0,0,0-1.229,1.9v.017c.022.637.487,1.251,1.467,1.816,2.175,1.257,4.329.842,6.3.2,1.832-.6,3.166-1.3,4.223-.692.659.382.459.842-.277,1.268a3.637,3.637,0,0,1-3.149.182l-2.115,2.1a8.131,8.131,0,0,0,1.168.343,8.719,8.719,0,0,0,5.231-.631l1.655.957,2.23-1.29Z" transform="translate(-382.703 -236.296)"/></g></g><g transform="translate(2.38)"><g transform="translate(0 4.147)"><path class="b" d="M411.7,232.059a14.283,14.283,0,0,0-5.291-4.893c-8.65-4.994-22.674-4.994-31.324,0a14.282,14.282,0,0,0-5.291,4.893h-1.2v4.525h.016c.159,3.146,2.312,6.265,6.472,8.666,8.65,4.994,22.674,4.994,31.324,0,4.16-2.4,6.313-5.52,6.472-8.666h.016v-4.525Z" transform="translate(-368.601 -223.421)"/><path class="o" d="M411.7,232.059a14.283,14.283,0,0,0-5.291-4.893c-8.65-4.994-22.674-4.994-31.324,0a14.282,14.282,0,0,0-5.291,4.893h-1.2v4.525h.016c.159,3.146,2.312,6.265,6.472,8.666,8.65,4.994,22.674,4.994,31.324,0,4.16-2.4,6.313-5.52,6.472-8.666h.016v-4.525Z" transform="translate(-368.601 -223.421)"/></g><g transform="translate(0)"><path class="b" d="M406.413,221.938c-8.65-4.994-22.674-4.994-31.324,0s-8.65,13.091,0,18.085,22.674,4.994,31.324,0S415.063,226.932,406.413,221.938Z" transform="translate(-368.601 -218.193)"/><path class="p" d="M406.413,221.938c-8.65-4.994-22.674-4.994-31.324,0s-8.65,13.091,0,18.085,22.674,4.994,31.324,0S415.063,226.932,406.413,221.938Z" transform="translate(-368.601 -218.193)"/><g transform="translate(0.966 0.962)"><g transform="translate(6.489 3.917)"><path class="b" d="M402.893,226.519a24.989,24.989,0,0,0-20.4,0c-2.9,1.486-4.5,3.524-4.5,5.734s1.6,4.245,4.5,5.732a24.956,24.956,0,0,0,20.4,0c2.9-1.487,4.493-3.521,4.493-5.732S405.789,228,402.893,226.519Z" transform="translate(-377.999 -224.343)"/><path class="p" d="M402.893,226.519a24.989,24.989,0,0,0-20.4,0c-2.9,1.486-4.5,3.524-4.5,5.734s1.6,4.245,4.5,5.732a24.956,24.956,0,0,0,20.4,0c2.9-1.487,4.493-3.521,4.493-5.732S405.789,228,402.893,226.519Z" transform="translate(-377.999 -224.343)"/></g><path class="b" d="M406.184,223.025a33.639,33.639,0,0,0-30.359,0c-3.875,2.237-6.006,5.147-6.006,8.208s2.131,5.972,6.006,8.208a33.678,33.678,0,0,0,30.359,0c3.869-2.237,6-5.152,6-8.208S410.053,225.262,406.184,223.025Zm-4.982,13.94a24.956,24.956,0,0,1-20.4,0c-2.9-1.487-4.5-3.521-4.5-5.732s1.6-4.249,4.5-5.734a24.989,24.989,0,0,1,20.4,0c2.9,1.486,4.493,3.524,4.493,5.734S404.1,235.478,401.2,236.964Z" transform="translate(-369.819 -219.405)"/><path class="q" d="M406.184,223.025a33.639,33.639,0,0,0-30.359,0c-3.875,2.237-6.006,5.147-6.006,8.208s2.131,5.972,6.006,8.208a33.678,33.678,0,0,0,30.359,0c3.869-2.237,6-5.152,6-8.208S410.053,225.262,406.184,223.025Zm-4.982,13.94a24.956,24.956,0,0,1-20.4,0c-2.9-1.487-4.5-3.521-4.5-5.732s1.6-4.249,4.5-5.734a24.989,24.989,0,0,1,20.4,0c2.9,1.486,4.493,3.524,4.493,5.734S404.1,235.478,401.2,236.964Z" transform="translate(-369.819 -219.405)"/></g></g><g transform="translate(8.219 5.638)"><ellipse class="b" cx="13.931" cy="7.149" rx="13.931" ry="7.149"/><ellipse class="o" cx="13.931" cy="7.149" rx="13.931" ry="7.149"/><g transform="translate(0.125 1.894)"><path class="b" d="M402.776,229.782c-5.44-2.792-14.261-2.792-19.7,0-2.25,1.155-3.566,2.606-3.955,4.108.389,1.5,1.705,2.954,3.955,4.108,5.44,2.792,14.261,2.792,19.7,0,2.25-1.154,3.566-2.6,3.956-4.107C406.342,232.388,405.026,230.936,402.776,229.782Z" transform="translate(-379.12 -227.688)"/><path class="p" d="M402.776,229.782c-5.44-2.792-14.261-2.792-19.7,0-2.25,1.155-3.566,2.606-3.955,4.108.389,1.5,1.705,2.954,3.955,4.108,5.44,2.792,14.261,2.792,19.7,0,2.25-1.154,3.566-2.6,3.956-4.107C406.342,232.388,405.026,230.936,402.776,229.782Z" transform="translate(-379.12 -227.688)"/></g></g><g transform="translate(13.566 7.221)"><g transform="translate(0 0.62)"><path class="b" d="M397.669,228.077v2.042l-.7.736-1.29,1.351v-2.126Z" transform="translate(-387.766 -228.077)"/><path class="b" d="M394.629,230.463v2.127H390.6V230.1S394.326,229.527,394.629,230.463Z" transform="translate(-386.715 -228.46)"/><path class="b" d="M402.866,236.057v1.763l-2.234,1.289-1.653-.956a8.416,8.416,0,0,1-6.4.289v-1.765l1.015-1.007-1.015.28a6.534,6.534,0,0,1-4.984-.57c-1-.578-1.467-1.21-1.464-1.861V231.8l.181-.75-.61-.355v-1.765l1.653.955a2.551,2.551,0,0,0-1.224,1.9v.02c.017.635.487,1.25,1.464,1.814,2.173,1.255,4.326.841,6.3.209,1.835-.6,3.17-1.3,4.228-.693.656.38.457.841-.28,1.268a3.666,3.666,0,0,1-3.15.182l-2.112,2.094a7.554,7.554,0,0,0,1.167.343,8.7,8.7,0,0,0,5.231-.629l1.653.955Z" transform="translate(-385.703 -228.254)"/><path class="b" d="M402.438,238.335V240.1l1.654.955V239.29Z" transform="translate(-389.163 -230.198)"/><g class="r"><path class="f" d="M397.669,228.077v2.042l-.7.736-1.29,1.351v-2.126Z" transform="translate(-387.766 -228.077)"/><path class="f" d="M394.629,230.463v2.127H390.6V230.1S394.326,229.527,394.629,230.463Z" transform="translate(-386.715 -228.46)"/><path class="f" d="M402.866,236.057v1.763l-2.234,1.289-1.653-.956a8.416,8.416,0,0,1-6.4.289v-1.765l1.015-1.007-1.015.28a6.534,6.534,0,0,1-4.984-.57c-1-.578-1.467-1.21-1.464-1.861V231.8l.181-.75-.61-.355v-1.765l1.653.955a2.551,2.551,0,0,0-1.224,1.9v.02c.017.635.487,1.25,1.464,1.814,2.173,1.255,4.326.841,6.3.209,1.835-.6,3.17-1.3,4.228-.693.656.38.457.841-.28,1.268a3.666,3.666,0,0,1-3.15.182l-2.112,2.094a7.554,7.554,0,0,0,1.167.343,8.7,8.7,0,0,0,5.231-.629l1.653.955Z" transform="translate(-385.703 -228.254)"/><path class="f" d="M402.438,238.335V240.1l1.654.955V239.29Z" transform="translate(-389.163 -230.198)"/></g></g><path class="b" d="M402.492,235.5l-1.279-.742a2.178,2.178,0,0,0,1.279-1.959,1.641,1.641,0,0,0-.011-.171,2.414,2.414,0,0,0-1.428-1.733v-.006a5.872,5.872,0,0,0-2.973-.774c-.083,0-.171,0-.255,0H397.8l-.265.017c-.078.006-.155.011-.233.022-.033.006-.066.006-.094.011a1.69,1.69,0,0,0-.177.022,12.047,12.047,0,0,0-1.445.3c-.227.061-.454.127-.675.2-.321.1-.637.2-.935.3-.122.044-.238.083-.355.122a10.927,10.927,0,0,1-1.982.564,2.054,2.054,0,0,1-.853-.033,1.742,1.742,0,0,1-.4-.166c-.5-.288-.576-.725.359-1.268a3.269,3.269,0,0,1,2.873-.3l1.987-2a8.51,8.51,0,0,0-5.995.332l-1.655-.952-2.254,1.3,1.656.953a2.558,2.558,0,0,0-1.229,1.9v.017c.022.637.487,1.251,1.467,1.816,2.175,1.256,4.329.842,6.3.2,1.832-.6,3.166-1.3,4.223-.692.659.382.459.842-.277,1.268a3.636,3.636,0,0,1-3.149.182l-2.115,2.1a8.139,8.139,0,0,0,1.168.343,8.719,8.719,0,0,0,5.231-.631l1.655.957,2.231-1.29Z" transform="translate(-385.703 -227.296)"/><path class="q" d="M402.492,235.5l-1.279-.742a2.178,2.178,0,0,0,1.279-1.959,1.641,1.641,0,0,0-.011-.171,2.414,2.414,0,0,0-1.428-1.733v-.006a5.872,5.872,0,0,0-2.973-.774c-.083,0-.171,0-.255,0H397.8l-.265.017c-.078.006-.155.011-.233.022-.033.006-.066.006-.094.011a1.69,1.69,0,0,0-.177.022,12.047,12.047,0,0,0-1.445.3c-.227.061-.454.127-.675.2-.321.1-.637.2-.935.3-.122.044-.238.083-.355.122a10.927,10.927,0,0,1-1.982.564,2.054,2.054,0,0,1-.853-.033,1.742,1.742,0,0,1-.4-.166c-.5-.288-.576-.725.359-1.268a3.269,3.269,0,0,1,2.873-.3l1.987-2a8.51,8.51,0,0,0-5.995.332l-1.655-.952-2.254,1.3,1.656.953a2.558,2.558,0,0,0-1.229,1.9v.017c.022.637.487,1.251,1.467,1.816,2.175,1.256,4.329.842,6.3.2,1.832-.6,3.166-1.3,4.223-.692.659.382.459.842-.277,1.268a3.636,3.636,0,0,1-3.149.182l-2.115,2.1a8.139,8.139,0,0,0,1.168.343,8.719,8.719,0,0,0,5.231-.631l1.655.957,2.231-1.29Z" transform="translate(-385.703 -227.296)"/></g></g></g></g></g></svg>