<svg xmlns="http://www.w3.org/2000/svg" xmlns:xlink="http://www.w3.org/1999/xlink" width="440" height="312" viewBox="0 0 440 312"><defs><style>.a{fill:#fff;}.b{fill:#9ac7d7;}.c{opacity:0.4;}.d,.e{fill:#4988a6;}.d{font-size:9px;}.d,.e,.k{font-family:Roboto-Regular, Roboto;}.e{font-size:8px;}.f,.g{fill:none;stroke-miterlimit:10;}.f{stroke:#7586ed;}.g,.i{stroke:#48dfc0;}.h{fill:#48dfc0;}.i{fill:#30d2d6;}.j{fill:#7586ed;}.k{fill:#959595;font-size:12px;}.l{filter:url(#a);}</style><filter id="a" x="0" y="0" width="440" height="312" filterUnits="userSpaceOnUse"><feOffset input="SourceAlpha"/><feGaussianBlur stdDeviation="3" result="b"/><feFlood flood-color="#6d6d6d" flood-opacity="0.161"/><feComposite operator="in" in2="b"/><feComposite in="SourceGraphic"/></filter></defs><g transform="translate(9.099 9.439)"><g class="l" transform="matrix(1, 0, 0, 1, -9.1, -9.44)"><rect class="a" width="422" height="294" rx="10" transform="translate(9 9)"/></g><g transform="translate(50.226 20.091)"><path class="b" d="M392.516,513.6H45.954V315.2h1.513V511.77H392.516Z" transform="translate(-45.954 -315.205)"/></g><g class="c" transform="translate(50.226 35.158)"><rect class="b" width="345.977" height="1.141"/></g><g class="c" transform="translate(50.226 65.294)"><rect class="b" width="345.977" height="1.141"/></g><g class="c" transform="translate(50.226 96.686)"><rect class="b" width="345.977" height="1.141"/></g><g class="c" transform="translate(50.226 126.822)"><rect class="b" width="345.977" height="1.141"/></g><g class="c" transform="translate(50.226 188.349)"><rect class="b" width="345.977" height="1.141"/></g><g class="c" transform="translate(50.226 158.213)"><rect class="b" width="345.977" height="1.141"/></g><text class="d" transform="translate(37.901 61.561)"><tspan x="-20.215" y="0">1000</tspan></text><text class="d" transform="translate(37.901 34.561)"><tspan x="-20.215" y="0">1300</tspan></text><text class="e" transform="translate(35.901 92.561)"><tspan x="-13.477" y="0">700</tspan></text><text class="e" transform="translate(35.901 123.561)"><tspan x="-13.477" y="0">500</tspan></text><text class="e" transform="translate(35.901 155.561)"><tspan x="-13.477" y="0">300</tspan></text><text class="e" transform="translate(35.901 185.561)"><tspan x="-13.477" y="0">100</tspan></text><text class="e" transform="translate(37.901 218.561)"><tspan x="-4.492" y="0">0</tspan></text><text class="e" transform="translate(70.901 235.561)"><tspan x="-13.477" y="0">100</tspan></text><text class="e" transform="translate(101.901 235.561)"><tspan x="-13.477" y="0">200</tspan></text><text class="e" transform="translate(133.901 235.561)"><tspan x="-13.477" y="0">300</tspan></text><text class="e" transform="translate(164.901 235.561)"><tspan x="-13.477" y="0">400</tspan></text><text class="e" transform="translate(196.901 235.561)"><tspan x="-13.477" y="0">500</tspan></text><text class="e" transform="translate(229.901 235.561)"><tspan x="-13.477" y="0">600</tspan></text><text class="e" transform="translate(259.901 235.561)"><tspan x="-13.477" y="0">600</tspan></text><text class="e" transform="translate(291.901 235.561)"><tspan x="-13.477" y="0">700</tspan></text><text class="e" transform="translate(322.901 235.561)"><tspan x="-13.477" y="0">800</tspan></text><text class="e" transform="translate(354.901 235.561)"><tspan x="-13.477" y="0">900</tspan></text><text class="d" transform="translate(390.901 236.561)"><tspan x="-20.215" y="0">1000</tspan></text><path class="f" d="M55.646,439.733,82.9,459.25l33.747-49.445,32.45,31.228,32.449-29.927h61.005L275,347.349l32.449,93.685h28.556L384.418,318.6" transform="translate(13.549 -291.878)"/><g transform="translate(62.183 53.795)"><path class="g" d="M53.646,395.821H84.8l33.748-61.155L151,456.978l32.45-91.08H221.09l23.364,58.555H276.9l32.45-29.933,28.556,32.529,48.41-31.657" transform="translate(-50.538 -330.829)"/><path class="h" d="M3.416,0A3.416,3.416,0,1,1,0,3.416,3.416,3.416,0,0,1,3.416,0Z" transform="translate(0 60.943)"/><path class="h" d="M3.416,0A3.416,3.416,0,1,1,0,3.416,3.416,3.416,0,0,1,3.416,0Z" transform="translate(29.444 60.943)"/><path class="h" d="M3.416,0A3.416,3.416,0,1,1,0,3.416,3.416,3.416,0,0,1,3.416,0Z" transform="translate(64.861)"/><circle class="i" cx="3.416" cy="3.416" r="3.416" transform="translate(96.898 122.791)"/><path class="h" d="M3.416,0A3.416,3.416,0,1,1,0,3.416,3.416,3.416,0,0,1,3.416,0Z" transform="translate(129.688 31.973)"/><path class="h" d="M3.416,0A3.416,3.416,0,1,1,0,3.416,3.416,3.416,0,0,1,3.416,0Z" transform="translate(165.852 31.973)"/><path class="h" d="M3.416,0A3.416,3.416,0,1,1,0,3.416,3.416,3.416,0,0,1,3.416,0Z" transform="translate(190.888 89.975)"/><path class="h" d="M3.416,0A3.416,3.416,0,1,1,0,3.416,3.416,3.416,0,0,1,3.416,0Z" transform="translate(223.078 89.975)"/><path class="h" d="M3.416,0A3.416,3.416,0,1,1,0,3.416,3.416,3.416,0,0,1,3.416,0Z" transform="translate(255.665 60.577)"/><path class="h" d="M3.416,0A3.416,3.416,0,1,1,0,3.416,3.416,3.416,0,0,1,3.416,0Z" transform="translate(284.173 91.962)"/></g><circle class="j" cx="3.416" cy="3.416" r="3.416" transform="translate(394.98 24.568)"/><circle class="j" cx="3.416" cy="3.416" r="3.416" transform="translate(317.564 146.24)"/><circle class="j" cx="3.416" cy="3.416" r="3.416" transform="translate(285.43 50.354)"/><circle class="j" cx="3.416" cy="3.416" r="3.416" transform="translate(252.321 114.602)"/><circle class="j" cx="3.416" cy="3.416" r="3.416" transform="translate(126.704 114.602)"/><circle class="j" cx="3.416" cy="3.416" r="3.416" transform="translate(191.947 114.602)"/><circle class="j" cx="3.416" cy="3.416" r="3.416" transform="translate(93.108 163.762)"/><circle class="j" cx="3.416" cy="3.416" r="3.416" transform="translate(65.453 143.806)"/><circle class="j" cx="3.416" cy="3.416" r="3.416" transform="translate(158.352 144.78)"/><rect class="j" width="22" height="5" transform="translate(41.901 269.561) rotate(180)"/><rect class="h" width="21" height="5" transform="translate(201.901 269.561) rotate(180)"/><text class="k" transform="translate(55.901 258.561)"><tspan x="0" y="11">Lorem ipsum</tspan></text><text class="k" transform="translate(217.901 258.561)"><tspan x="0" y="11">Lorem ipsum</tspan></text></g></svg>