<svg xmlns="http://www.w3.org/2000/svg" width="43" height="37.148" viewBox="0 0 43 37.148"><defs><style>.a{fill:#10956d;}</style></defs><g transform="translate(0 -34.571)"><g transform="translate(0 34.571)"><path class="a" d="M.009,61.483A10.263,10.263,0,1,0,6.93,51.806C9.233,38.6,19.536,30.075,9.986,37.087-.6,44.863,0,61.17.01,61.469.01,61.473.009,61.478.009,61.483Z" transform="translate(0 -34.571)"/><path class="a" d="M266.07,61.483a10.263,10.263,0,1,0,6.921-9.676c2.3-13.211,12.606-21.731,3.056-14.719-10.59,7.775-9.988,24.083-9.976,24.382C266.07,61.473,266.07,61.478,266.07,61.483Z" transform="translate(-243.542 -34.571)"/></g></g></svg>